<?xml version="1.0" standalone="no"?>
<!DOCTYPE svg PUBLIC "-//W3C//DTD SVG 20010904//EN"
 "http://www.w3.org/TR/2001/REC-SVG-20010904/DTD/svg10.dtd">
<svg version="1.0" xmlns="http://www.w3.org/2000/svg"
 width="260.000000pt" height="260.000000pt" viewBox="0 0 260.000000 260.000000"
 preserveAspectRatio="xMidYMid meet">
<metadata>
Created by potrace 1.11, written by Peter Selinger 2001-2013
</metadata>
<g transform="translate(0.000000,260.000000) scale(0.100000,-0.100000)"
fill="#000000" stroke="none">
<path d="M475 2171 c-35 -21 -405 -395 -405 -408 0 -5 163 -184 362 -398 199
-215 478 -516 621 -670 293 -316 312 -335 332 -335 8 0 141 147 297 328 155
180 405 468 555 639 150 172 284 329 298 349 29 43 33 98 9 132 -21 31 -362
341 -399 364 -28 17 -72 18 -835 18 -768 0 -806 -1 -835 -19z m178 -147 c3 -3
-29 -40 -71 -82 -88 -88 -125 -150 -151 -253 -17 -67 -19 -71 -31 -50 -6 13
-28 40 -47 62 -26 29 -34 45 -29 62 9 36 226 244 267 255 42 13 54 14 62 6z
m1167 -9 c16 -19 3 -40 -16 -24 -15 13 -19 39 -5 39 5 0 14 -7 21 -15z m-429
-9 c173 -31 295 -130 324 -264 4 -21 14 -34 28 -37 12 -3 114 -4 227 -3 l205
3 3 103 3 103 85 -77 c46 -43 83 -81 82 -86 -6 -16 -230 -278 -238 -278 -5 0
-11 9 -15 20 -12 37 -95 99 -175 129 -120 47 -225 60 -540 71 -288 9 -382 21
-456 56 -68 32 -88 102 -43 150 55 59 250 122 379 123 30 0 89 -6 131 -13z
m-506 -686 c44 -5 179 -16 300 -25 353 -24 567 -53 613 -81 12 -8 22 -24 22
-35 0 -45 -177 -93 -346 -93 l-112 -1 -41 33 c-74 60 -145 86 -246 90 -73 3
-102 0 -153 -17 -44 -15 -68 -19 -81 -12 -15 8 -45 41 -130 145 -15 18 -14 19
39 12 30 -4 91 -11 135 -16z m537 -455 c101 0 154 -4 150 -10 -20 -34 -188
-205 -201 -205 -9 0 -68 52 -131 115 l-115 116 70 -8 c39 -4 140 -8 227 -8z"/>
</g>
</svg>
