<?xml version="1.0" standalone="no"?>
<!DOCTYPE svg PUBLIC "-//W3C//DTD SVG 20010904//EN"
 "http://www.w3.org/TR/2001/REC-SVG-20010904/DTD/svg10.dtd">
<svg version="1.0" xmlns="http://www.w3.org/2000/svg"
 width="800.000000pt" height="800.000000pt" viewBox="0 0 800.000000 800.000000"
 preserveAspectRatio="xMidYMid meet">
<metadata>
Created by potrace 1.11, written by Peter Selinger 2001-2013
</metadata>
<g transform="translate(0.000000,800.000000) scale(0.100000,-0.100000)"
fill="#000000" stroke="none">
<path d="M2446 6212 c-3 -5 -3 -17 -2 -28 2 -10 -1 -24 -6 -31 -5 -7 -5 -14 2
-18 5 -3 10 -10 10 -16 0 -12 -27 -12 -35 1 -4 6 1 7 12 4 15 -5 15 -4 3 4
-10 8 -22 6 -42 -6 -23 -13 -28 -22 -24 -45 3 -16 2 -26 -2 -22 -7 7 -8 12
-11 41 0 9 -7 14 -13 11 -7 -2 -12 -10 -10 -16 1 -7 -2 -10 -8 -6 -5 3 -10 2
-10 -4 0 -5 6 -12 13 -14 9 -4 9 -6 -1 -6 -7 -1 -15 6 -18 14 -7 18 -31 20
-36 3 -3 -7 -7 -5 -11 6 -5 11 -3 15 5 10 7 -4 8 -3 4 4 -4 6 -13 9 -22 5 -12
-4 -12 -8 -2 -21 10 -12 10 -14 1 -8 -8 4 -13 2 -13 -6 0 -9 -3 -9 -10 2 -6
10 -3 21 12 37 17 19 19 26 9 36 -10 9 -11 8 -6 -8 6 -19 6 -19 -8 -2 -9 11
-13 26 -10 35 4 10 3 14 -2 10 -11 -11 -13 -51 -2 -65 7 -9 5 -13 -6 -13 -9 0
-17 6 -19 14 -2 10 -9 6 -22 -12 -11 -15 -13 -21 -6 -14 8 6 19 12 25 12 5 -1
-1 -10 -15 -22 -16 -14 -19 -19 -7 -15 13 5 17 1 17 -14 0 -16 4 -20 18 -15
16 6 16 5 -1 -8 -10 -8 -27 -11 -39 -8 -16 4 -19 2 -13 -9 5 -8 5 -11 0 -7 -4
4 -16 -3 -26 -15 -12 -16 -21 -19 -28 -11 -8 7 -4 14 14 24 14 8 24 19 21 25
-3 8 5 11 20 9 29 -3 32 12 4 19 -19 5 -35 -7 -35 -27 0 -5 -6 -11 -12 -13
-16 -6 -17 19 -3 33 7 7 4 16 -9 28 -19 18 -24 5 -8 -20 7 -12 -16 -38 -26
-28 -3 3 -10 -3 -16 -15 -7 -12 -7 -22 -1 -26 5 -3 7 -13 4 -23 -5 -14 -4 -14
4 -2 7 8 7 19 2 25 -17 21 17 42 36 23 4 -5 0 -8 -8 -8 -10 0 -14 -8 -13 -25
2 -14 -1 -25 -6 -25 -6 0 -7 -4 -4 -10 3 -6 -1 -7 -10 -4 -11 5 -14 2 -9 -12
4 -14 3 -15 -4 -6 -7 11 -10 11 -16 -3 -3 -9 -10 -13 -16 -10 -5 3 -11 -1 -11
-9 -1 -9 -2 -22 -3 -28 -1 -7 3 -16 9 -20 5 -4 0 -6 -12 -5 -12 0 -19 5 -17 9
3 4 0 8 -5 8 -6 0 -11 -10 -12 -22 0 -22 -1 -22 -8 -3 -5 11 -4 22 0 23 5 2 9
10 9 18 0 8 5 14 11 14 5 0 8 -4 4 -9 -3 -5 -1 -12 4 -15 5 -4 8 2 7 11 -2 12
-12 18 -29 18 -14 1 -23 -3 -21 -7 5 -7 -10 -12 -28 -9 -5 0 -8 -4 -8 -10 0
-5 -5 -7 -10 -4 -6 4 -8 10 -6 14 3 4 -2 8 -10 8 -11 0 -10 -5 5 -21 10 -12
16 -27 13 -35 -3 -8 0 -11 7 -7 6 4 11 3 11 -2 0 -14 -28 -23 -35 -11 -4 5
-11 6 -17 3 -7 -5 -9 -1 -5 9 3 9 2 19 -2 22 -5 3 -8 -13 -6 -36 3 -34 1 -38
-11 -28 -10 8 -14 8 -14 0 0 -6 5 -11 10 -11 6 0 10 -7 10 -16 0 -8 -4 -13 -9
-9 -6 3 -8 -4 -6 -15 2 -13 -1 -20 -11 -20 -8 0 -14 -5 -14 -11 0 -5 5 -7 10
-4 6 3 10 3 10 -2 0 -13 -17 -35 -26 -35 -10 0 -9 -3 2 -32 6 -15 4 -17 -7
-11 -11 7 -12 6 -3 -6 6 -8 11 -25 12 -39 1 -18 -1 -21 -8 -10 -5 8 -7 17 -4
21 2 4 -1 11 -7 15 -7 4 -9 3 -6 -3 4 -6 0 -14 -9 -17 -12 -5 -14 -1 -8 17 3
12 12 29 18 37 9 13 9 13 -5 3 -9 -7 -19 -10 -23 -6 -4 4 -4 -1 0 -10 4 -13
-2 -27 -21 -47 -26 -27 -26 -28 -5 -23 20 5 21 4 11 -15 -6 -11 -16 -23 -23
-25 -10 -4 -10 -6 -1 -6 7 -1 10 -8 7 -16 -4 -8 -9 -13 -13 -10 -4 2 -8 -2 -8
-10 0 -8 4 -15 9 -15 4 0 8 5 8 12 0 15 15 0 15 -15 1 -7 -4 -15 -10 -19 -6
-5 -6 -8 2 -8 7 0 10 -7 6 -17 -5 -12 -2 -15 8 -11 8 3 24 -1 34 -9 13 -11 15
-14 4 -10 -23 8 -52 -58 -33 -74 8 -6 11 -16 8 -21 -4 -6 -10 -5 -16 3 -8 11
-9 11 -5 -1 2 -8 -4 -21 -13 -30 -9 -8 -10 -11 -4 -7 15 10 54 -9 54 -25 0 -9
-3 -9 -12 0 -7 7 -16 12 -20 12 -4 0 1 -9 12 -20 11 -11 20 -28 20 -38 0 -10
5 -23 12 -30 6 -6 9 -15 5 -18 -6 -7 -33 15 -34 29 -1 5 -4 11 -6 14 -7 6 -2
-17 8 -39 8 -21 26 -23 43 -6 9 9 7 14 -5 23 -13 10 -13 14 -3 20 8 5 11 4 6
-3 -3 -6 3 -13 14 -17 l20 -6 -20 -17 -20 -17 25 -29 c24 -28 24 -30 8 -48
-25 -27 -25 -76 0 -51 4 3 2 11 -3 18 -7 8 -2 15 18 24 25 10 26 10 8 -4 -20
-15 -20 -15 0 -30 12 -9 14 -14 6 -15 -7 0 -11 -4 -7 -9 3 -5 1 -12 -5 -16 -6
-4 -8 -11 -4 -16 3 -6 12 -2 19 8 7 10 17 15 21 10 4 -4 2 -7 -4 -7 -7 0 -12
-4 -12 -10 0 -5 6 -7 13 -4 8 3 14 -1 14 -8 0 -8 -8 -14 -18 -14 -10 0 -16 3
-14 6 2 3 -5 6 -16 6 -19 0 -20 -1 -2 -14 10 -7 17 -18 16 -23 -2 -5 2 -9 8
-9 6 0 8 7 5 16 -3 9 -2 12 5 9 5 -4 7 -16 3 -28 -6 -18 -4 -20 7 -10 10 8 19
9 29 1 12 -8 11 -9 -3 -4 -13 4 -20 0 -24 -14 -5 -17 -8 -18 -22 -8 -14 11
-14 11 -4 -2 8 -10 9 -21 3 -30 -14 -21 -12 -30 4 -30 19 0 27 -25 13 -40 -9
-10 -9 -11 1 -6 6 4 12 3 12 -3 0 -5 -5 -12 -10 -14 -6 -3 -5 -4 2 -3 7 2 12
10 12 19 -1 9 4 18 12 21 8 3 11 -2 9 -15 -3 -14 2 -19 18 -20 17 0 14 -4 -13
-13 -19 -8 -38 -11 -42 -9 -5 2 -8 0 -8 -5 0 -6 11 -9 25 -8 14 0 25 4 25 9 0
4 13 6 30 5 25 -2 27 -4 17 -18 -16 -20 -15 -52 2 -58 9 -3 11 0 6 8 -5 9 -4
11 4 6 17 -11 5 -23 -25 -23 -18 0 -22 2 -13 8 10 6 11 9 2 9 -7 0 -13 5 -13
11 0 5 5 7 10 4 6 -3 10 -2 10 3 0 11 -30 25 -38 17 -3 -3 -1 -5 4 -5 5 0 10
-16 10 -35 1 -34 1 -35 -17 -19 -23 20 -26 9 -4 -13 12 -11 19 -12 29 -4 10 9
15 8 19 -3 4 -10 1 -13 -9 -9 -7 3 -14 0 -14 -7 0 -6 -4 -9 -9 -5 -17 10 -20
-9 -5 -30 13 -18 20 -10 15 18 0 4 3 7 9 7 13 0 13 -6 -1 -31 -10 -20 -11 -20
-31 -3 -15 14 -19 15 -16 4 2 -8 -3 -14 -9 -12 -7 1 -13 -2 -13 -8 0 -14 13
-13 28 2 9 9 12 9 13 0 2 -21 4 -27 12 -39 6 -9 1 -13 -15 -13 -13 0 -18 4
-13 8 10 7 18 32 10 32 -2 0 -9 -9 -15 -20 -8 -15 -6 -23 12 -40 14 -13 17
-19 7 -15 -10 4 -16 0 -16 -10 0 -14 10 -19 30 -16 5 1 6 -3 2 -8 -4 -7 -15
-6 -31 1 -15 7 -20 14 -13 18 7 5 5 9 -5 13 -9 4 -16 12 -16 18 0 8 5 7 18 -2
14 -11 15 -11 5 1 -7 8 -20 15 -29 16 -14 2 -14 0 1 -22 8 -13 12 -24 9 -24
-4 0 1 -9 10 -19 13 -14 15 -24 8 -37 -6 -11 -11 -13 -16 -5 -4 6 -2 11 3 11
17 0 13 17 -6 24 -10 4 -14 4 -11 1 4 -4 2 -19 -3 -33 -7 -18 -6 -28 2 -36 9
-8 10 -6 5 9 -6 15 -4 17 5 8 17 -17 2 -35 -21 -23 -28 15 -36 12 -14 -6 17
-14 17 -15 1 -10 -11 4 -16 2 -11 -5 3 -6 14 -9 24 -6 10 2 24 0 31 -5 11 -8
10 -9 -3 -5 -9 3 -19 3 -23 -1 -10 -10 -29 -9 -38 3 -5 6 -7 3 -3 -7 3 -10 -2
-22 -12 -27 -9 -6 -12 -11 -6 -11 6 0 17 7 24 15 11 13 14 13 25 -2 7 -10 11
-22 8 -27 -4 -5 -7 -19 -9 -30 -1 -12 -4 -28 -5 -36 -2 -8 2 -14 9 -12 17 3
15 -15 -2 -21 -17 -7 -14 -43 4 -39 6 1 9 -2 5 -8 -5 -8 -11 -8 -20 0 -9 8
-14 7 -18 -4 -3 -8 -1 -17 6 -20 9 -3 8 -5 -1 -5 -7 -1 -10 -6 -7 -11 5 -8 12
-7 23 2 10 7 6 -1 -8 -17 -14 -17 -29 -33 -35 -37 -10 -8 0 -12 20 -8 6 1 7
-2 3 -6 -4 -4 -2 -14 5 -23 7 -9 2 -8 -15 4 -15 11 -25 26 -23 33 2 6 0 12 -6
12 -6 0 -8 4 -4 9 3 5 1 12 -4 15 -5 4 -12 2 -15 -3 -4 -5 -2 -12 4 -16 14 -9
12 -25 -2 -21 -7 1 -10 1 -5 -1 4 -3 4 -10 1 -15 -4 -6 -2 -8 4 -5 12 8 42 -1
42 -13 0 -5 -16 -7 -35 -6 -19 2 -32 -1 -29 -6 3 -5 15 -6 27 -2 19 6 20 5 10
-8 -15 -18 -7 -29 14 -21 12 5 12 7 1 14 -10 7 -10 9 0 9 6 0 15 -1 19 -2 9
-4 13 -28 5 -27 -19 3 -29 -3 -29 -16 0 -8 3 -15 7 -15 4 0 12 -12 19 -27 l12
-28 -25 29 c-14 16 -24 32 -21 35 2 4 -4 12 -14 18 -14 9 -17 7 -17 -12 0 -16
4 -21 15 -17 9 3 12 1 7 -6 -4 -7 -3 -12 3 -12 5 0 8 -9 6 -20 -2 -11 0 -18 5
-15 16 10 36 -5 37 -28 l1 -22 -10 23 c-6 12 -15 22 -20 22 -10 0 -6 -23 6
-32 18 -12 -13 -35 -42 -31 -23 3 -24 2 -7 -6 11 -5 31 -10 44 -10 32 -1 21
-11 -15 -15 -15 -2 -30 -9 -32 -17 -3 -12 -2 -12 6 0 6 9 12 10 16 3 4 -6 -2
-16 -13 -21 -14 -8 -21 -8 -24 2 -3 6 -5 3 -4 -9 1 -15 8 -21 30 -22 16 -2 26
2 22 7 -3 6 -13 8 -23 5 -15 -5 -15 -4 1 6 13 9 21 8 33 -4 8 -9 12 -16 7 -16
-5 0 -10 -11 -11 -26 -1 -14 2 -23 6 -20 4 2 9 -4 9 -15 1 -10 -3 -19 -8 -19
-6 0 -7 -5 -4 -10 4 -7 12 -7 25 0 10 5 22 10 27 10 4 -1 -3 -7 -17 -14 -14
-8 -28 -12 -32 -10 -5 3 -8 -9 -8 -26 0 -17 4 -29 10 -25 5 3 7 13 4 23 -5 14
-4 14 4 3 7 -10 6 -21 -5 -38 -8 -13 -11 -23 -5 -23 6 0 12 6 15 13 3 6 4 -4
2 -23 -1 -19 2 -37 6 -40 5 -3 0 -11 -11 -18 -14 -8 -21 -9 -26 0 -4 6 -3 8 4
4 6 -3 9 1 7 11 -1 10 2 23 7 29 5 8 3 14 -7 17 -9 4 -12 13 -9 24 4 13 3 15
-4 5 -7 -11 -10 -11 -15 3 -4 9 -3 13 3 10 6 -3 10 -2 10 3 0 5 -16 9 -35 9
-35 0 -41 -6 -11 -11 9 -1 16 -6 16 -10 -1 -4 6 -14 16 -20 16 -12 16 -14 -2
-24 -10 -6 -14 -12 -9 -12 6 0 17 6 24 13 10 10 12 8 9 -8 -1 -11 -7 -23 -12
-26 -4 -4 -1 -18 9 -32 15 -24 15 -26 -1 -35 -15 -8 -14 -10 3 -14 15 -4 19 0
18 16 -3 24 12 46 29 46 6 -1 5 -6 -4 -13 -20 -16 -23 -36 -10 -52 8 -10 8
-15 0 -20 -8 -5 -8 -11 1 -21 6 -7 16 -11 23 -7 7 4 6 1 -1 -9 -7 -8 -10 -17
-8 -20 3 -3 -6 -4 -20 -2 -20 2 -24 -1 -16 -10 6 -7 7 -16 3 -21 -4 -4 4 -2
18 5 l25 13 -19 -22 c-12 -13 -14 -21 -7 -21 7 0 10 -4 6 -10 -3 -5 -13 -6
-23 -3 -22 8 -14 -1 14 -15 19 -10 21 -9 18 13 -1 14 2 25 7 25 9 0 13 -15 9
-39 -1 -13 8 -37 32 -85 7 -12 6 -16 -1 -11 -6 3 -11 1 -11 -4 0 -6 3 -11 8
-11 4 0 13 -9 20 -21 8 -12 9 -18 3 -15 -18 12 -7 -38 17 -71 26 -36 27 -46 9
-62 -10 -8 -14 -7 -14 4 0 8 4 12 9 9 4 -3 8 2 8 12 0 13 -3 14 -14 4 -13 -10
-14 -7 -10 17 3 20 2 24 -5 13 -5 -8 -7 -18 -5 -22 3 -4 -1 -8 -8 -8 -8 0 -6
-5 5 -11 9 -6 15 -14 12 -18 -2 -5 3 -15 12 -22 14 -12 15 -12 9 0 -6 8 0 7
18 -4 30 -20 33 -27 9 -19 -15 5 -15 3 2 -11 l20 -17 -20 4 c-11 2 -19 11 -19
21 1 9 -2 14 -8 11 -5 -3 -6 -15 -2 -26 4 -14 2 -18 -5 -14 -6 4 -11 2 -11 -4
0 -7 8 -9 21 -5 19 6 20 5 8 -17 -7 -12 -13 -25 -13 -28 -1 -3 -5 -4 -9 -2 -5
1 -5 -3 -2 -9 5 -7 10 -8 18 0 7 7 18 6 37 -4 15 -8 31 -11 35 -7 5 4 5 2 2
-4 -4 -7 0 -14 7 -17 8 -3 14 -15 13 -26 0 -11 -4 -18 -8 -15 -4 2 -9 1 -12
-3 -2 -5 -2 -2 0 5 1 8 -2 10 -9 6 -7 -5 -8 -3 -3 6 6 9 4 11 -6 5 -11 -7 -12
-6 -2 7 11 12 9 17 -14 27 -18 8 -29 9 -37 1 -7 -7 -6 -10 3 -10 7 0 9 -5 5
-12 -4 -6 -3 -8 4 -4 15 9 26 -12 13 -28 -8 -9 -7 -13 4 -13 8 0 12 4 9 9 -3
4 -1 8 4 8 5 0 15 -14 22 -30 9 -21 18 -29 29 -26 18 6 69 -29 59 -39 -4 -4
-21 -9 -38 -10 -17 -1 -34 -6 -38 -10 -4 -5 1 -5 10 -2 9 3 22 -1 28 -9 11
-13 7 -18 -12 -15 -5 0 -8 -4 -8 -10 0 -6 6 -9 14 -6 8 3 17 1 20 -6 3 -9 5
-8 5 1 1 7 5 11 11 7 5 -3 7 -12 4 -20 -4 -8 -11 -12 -17 -8 -6 4 -7 1 -2 -7
6 -10 12 -9 24 7 16 19 56 29 45 11 -3 -5 -9 -6 -14 -3 -5 3 -13 -3 -19 -13
-8 -15 -6 -18 12 -19 17 -2 19 0 7 7 -9 6 -10 10 -3 10 6 0 14 -4 18 -9 3 -6
15 -8 27 -6 11 3 17 1 14 -3 -4 -4 -12 -7 -17 -7 -5 0 -9 -4 -8 -10 1 -5 5 -9
10 -8 5 2 3 -9 -3 -22 -8 -18 -15 -22 -22 -15 -5 5 -14 10 -20 10 -5 0 -1 -6
9 -14 17 -12 18 -16 5 -32 -10 -14 -10 -16 -1 -7 11 9 17 9 27 0 31 -28 44
-37 51 -37 4 0 2 5 -5 12 -17 17 -15 28 6 28 14 0 15 -2 2 -10 -14 -9 -7 -14
13 -11 4 1 2 -8 -5 -18 -7 -11 -16 -17 -22 -14 -5 3 -6 1 -2 -5 3 -5 0 -13 -6
-16 -7 -3 -2 -3 11 0 18 5 22 3 15 -7 -6 -11 -5 -12 8 -2 8 7 17 10 21 7 3 -3
3 3 0 14 -2 11 0 23 6 26 7 5 8 1 5 -9 -4 -9 1 -22 12 -31 18 -14 18 -14 0 -8
-16 6 -17 5 -6 -15 6 -13 9 -26 5 -29 -3 -3 -8 4 -12 16 -5 22 -18 29 -27 14
-2 -4 -1 -14 5 -22 5 -8 9 -11 9 -6 0 5 7 3 15 -4 20 -17 8 -34 -13 -18 -15
12 -16 11 -3 -5 9 -11 18 -14 25 -8 7 6 18 4 30 -4 10 -8 24 -11 32 -8 17 6
18 -1 4 -27 -7 -13 -7 -21 1 -25 6 -5 4 -12 -8 -22 -10 -8 -12 -11 -4 -7 7 3
18 0 23 -7 8 -11 9 -10 4 4 -3 11 0 17 10 17 8 0 12 5 9 10 -4 6 -10 8 -15 5
-5 -3 -11 -1 -15 5 -12 20 21 9 50 -17 18 -15 22 -23 12 -20 -10 4 -16 3 -12
-2 3 -5 1 -12 -5 -16 -15 -10 -2 -25 16 -18 13 5 13 7 2 14 -10 7 -9 9 4 9 9
0 18 3 21 8 2 4 2 0 -1 -8 -2 -8 -5 -20 -5 -27 0 -7 -4 -10 -8 -7 -4 2 -11 -1
-15 -7 -4 -7 -3 -9 3 -6 6 4 18 1 28 -7 16 -11 15 -14 -16 -34 -19 -12 -29
-22 -24 -22 6 0 17 5 25 10 18 11 53 -17 43 -34 -4 -6 0 -5 9 2 11 9 18 10 23
2 3 -5 1 -10 -5 -10 -6 0 -8 -5 -4 -11 5 -8 9 -8 14 1 4 7 12 10 18 6 19 -12
23 14 7 36 l-17 23 7 -22 c4 -14 2 -23 -5 -23 -6 0 -8 5 -4 12 5 7 3 8 -5 3
-10 -6 -11 -3 -1 14 13 25 25 20 45 -19 11 -21 20 -28 33 -24 14 5 15 4 2 -5
-8 -6 -11 -11 -6 -11 6 0 5 -5 -2 -12 -18 -18 -15 -28 9 -28 12 0 17 -4 14
-11 -4 -6 -13 -8 -21 -5 -8 3 -11 0 -8 -9 6 -14 35 -30 33 -17 -4 24 2 35 12
25 8 -8 8 -17 -1 -34 -10 -21 -10 -22 3 -7 18 23 30 12 16 -15 -7 -12 -7 -17
-1 -13 13 8 43 -4 37 -14 -3 -5 -1 -11 4 -14 18 -11 5 24 -15 39 -16 12 -16
14 -3 15 9 0 22 -6 29 -14 13 -17 43 -10 33 8 -3 6 3 3 14 -7 11 -9 23 -14 28
-10 4 5 5 2 1 -4 -4 -7 -2 -13 4 -13 7 0 6 -5 -2 -14 -7 -8 -17 -11 -23 -8 -5
3 -7 2 -3 -3 4 -4 1 -13 -8 -19 -13 -10 -13 -12 5 -12 11 0 17 5 14 10 -4 5 1
7 10 3 12 -4 14 -2 10 10 -5 13 -3 13 14 5 14 -8 23 -8 31 0 9 9 15 9 25 -1
10 -10 8 -11 -7 -5 -15 6 -17 4 -11 -6 5 -9 4 -11 -3 -6 -7 4 -12 2 -12 -3 0
-6 4 -11 9 -11 6 0 8 -9 6 -20 -2 -11 0 -18 5 -15 4 3 11 -1 13 -7 3 -7 4 1 3
19 -2 23 0 30 10 26 9 -3 12 -16 9 -37 l-4 -31 15 33 c16 36 25 42 17 12 -3
-11 0 -20 6 -20 6 0 11 8 12 18 0 12 2 13 6 3 3 -8 -5 -23 -18 -33 -16 -13
-20 -21 -11 -25 6 -2 9 -10 5 -16 -3 -7 -3 -9 2 -5 4 4 14 3 22 -4 11 -9 12
-7 7 7 -5 12 -4 16 4 11 6 -3 14 -1 18 5 5 8 3 9 -6 4 -9 -6 -11 -4 -5 6 8 12
6 12 -9 0 -12 -11 -19 -11 -27 -3 -5 7 -6 10 -3 7 4 -2 19 2 34 10 26 14 27
13 24 -12 -1 -14 2 -35 7 -47 8 -20 9 -20 8 4 -2 43 1 60 9 60 5 0 9 -7 9 -15
0 -8 -5 -15 -10 -15 -15 0 1 -14 18 -16 8 -1 15 2 15 7 0 5 5 9 12 9 9 0 9 -3
1 -11 -15 -15 -5 -39 12 -33 7 3 16 1 19 -5 4 -6 13 -8 21 -5 9 4 18 -1 22
-12 6 -16 7 -16 15 2 7 17 8 16 4 -4 -4 -19 -1 -21 20 -18 14 3 22 1 19 -5 -6
-8 8 -13 28 -10 5 1 5 -3 2 -9 -5 -8 -14 -6 -29 4 -21 13 -25 13 -40 -2 -17
-16 -17 -16 -14 3 2 12 -2 19 -9 18 -7 -2 -10 4 -7 12 4 8 2 15 -3 15 -14 0
-12 -33 4 -48 7 -8 11 -18 8 -23 -4 -5 -2 -9 2 -9 5 0 14 9 21 20 7 12 17 18
23 14 8 -4 7 -9 -1 -14 -8 -5 -7 -9 5 -13 10 -5 14 -3 9 4 -4 7 -1 10 7 7 8
-3 23 -1 34 5 18 9 18 8 7 -6 -12 -14 -11 -16 16 -13 22 3 29 0 28 -11 0 -9 6
-18 14 -20 13 -4 13 -3 0 7 -12 9 -11 10 7 5 16 -4 22 -2 20 7 -2 7 -2 10 0 5
3 -4 10 -4 16 0 7 4 5 -1 -3 -12 -14 -16 -13 -17 8 -11 17 6 22 3 22 -11 0
-11 -5 -24 -12 -31 -8 -8 -9 -12 -1 -12 6 0 14 6 16 13 4 9 8 9 15 -2 5 -7 15
-10 21 -6 8 4 10 -2 7 -19 -3 -15 -1 -24 3 -21 13 8 6 50 -8 47 -7 -1 -10 2
-6 8 4 6 2 9 -3 8 -6 -2 -10 0 -11 5 -3 19 0 27 9 27 5 0 9 -3 8 -7 -1 -5 10
-21 25 -37 22 -23 30 -27 40 -17 9 10 8 11 -8 6 -16 -6 -17 -5 -5 4 10 7 11
11 3 11 -7 0 -13 5 -13 12 0 6 3 8 7 5 3 -4 13 -1 22 5 13 10 14 10 4 -1 -9
-10 -9 -18 0 -34 9 -15 9 -21 0 -24 -21 -8 -15 -19 12 -21 14 -1 25 3 25 8 0
6 10 5 25 -2 14 -6 25 -15 25 -20 0 -5 -4 -7 -8 -4 -5 3 -9 -1 -9 -9 0 -11 3
-12 14 -3 8 6 12 17 9 24 -8 22 7 25 21 4 8 -11 20 -20 26 -20 7 0 6 4 -3 10
-8 5 -15 14 -15 20 0 6 -6 14 -13 19 -11 7 -10 9 3 14 9 4 13 3 10 -2 -3 -5
-1 -12 5 -16 6 -4 8 -11 5 -16 -4 -5 1 -9 9 -9 10 0 13 6 9 17 -4 11 -3 14 6
9 6 -4 9 -16 6 -27 -8 -23 1 -24 21 -4 11 11 12 15 3 15 -7 0 -10 3 -6 6 3 3
11 3 17 -1 8 -5 7 -11 -2 -23 -11 -14 -10 -15 5 -9 10 4 21 7 23 7 3 0 3 3 1
8 -3 4 9 8 26 9 30 2 30 2 -11 -18 -24 -12 -41 -23 -39 -25 2 -3 17 3 33 11
27 14 30 14 45 -4 11 -14 25 -19 43 -15 14 2 26 0 26 -6 0 -11 -13 -14 -45
-10 -29 3 -15 -8 17 -14 21 -3 29 0 33 15 4 11 10 17 15 14 5 -3 11 -1 15 5 4
6 11 8 16 5 5 -4 9 -1 9 6 0 9 4 9 15 -1 15 -13 39 -5 30 11 -3 5 0 6 8 3 12
-4 10 -11 -9 -31 -22 -24 -24 -51 -3 -37 5 3 7 9 4 14 -6 10 23 35 32 26 3 -3
15 1 25 11 11 9 18 11 18 5 0 -7 -4 -12 -10 -12 -22 0 -8 -15 15 -16 14 -1 22
2 19 7 -3 5 0 9 5 9 12 0 14 -13 4 -24 -17 -17 -9 -31 20 -33 l31 -1 -25 19
c-13 10 -18 19 -11 19 7 0 10 5 7 10 -3 6 -1 10 5 10 7 0 10 -7 6 -15 -3 -8 0
-16 7 -17 7 0 17 -2 22 -2 6 -1 16 -5 24 -10 9 -6 12 -5 7 2 -3 6 -2 13 4 17
5 3 10 1 10 -5 0 -7 8 -9 21 -5 13 5 19 3 15 -3 -3 -5 0 -15 7 -20 10 -8 13
-6 14 9 1 10 -2 19 -7 19 -5 0 -7 7 -3 16 4 12 9 10 24 -13 11 -15 19 -23 19
-16 0 7 7 10 16 6 11 -4 12 -8 4 -13 -8 -5 -7 -9 3 -13 10 -4 14 0 12 11 -2 9
-4 20 -4 24 -1 5 -6 7 -12 5 -6 -1 -13 4 -15 11 -1 7 0 8 3 2 2 -5 9 -7 14 -4
6 4 6 10 0 18 -8 9 -7 13 4 13 8 0 12 -4 9 -8 -2 -4 0 -10 6 -14 5 -3 10 -1
10 6 0 7 6 5 14 -6 8 -12 19 -16 31 -12 15 6 15 10 4 25 -12 15 -12 16 1 6 19
-14 50 -14 50 0 0 6 5 4 10 -4 9 -13 10 -13 11 0 1 8 1 19 0 23 -1 5 3 6 8 2
6 -3 7 -13 4 -23 -6 -14 -4 -15 9 -5 8 7 18 10 21 6 4 -3 7 2 7 13 0 16 2 15
13 -6 7 -14 18 -25 25 -25 7 0 17 -7 22 -15 8 -12 10 -12 10 5 0 17 2 17 10 5
8 -13 10 -13 10 2 0 13 -7 16 -28 13 -19 -2 -29 1 -29 10 0 8 7 11 15 7 11 -4
13 -1 7 8 -5 8 -4 11 3 6 6 -3 13 -2 17 4 3 5 11 10 18 10 6 0 2 -6 -9 -14
-17 -13 -14 -15 38 -14 32 1 61 -2 65 -7 5 -4 3 -5 -4 -1 -6 3 -14 2 -18 -3
-5 -9 -36 -8 -53 3 -5 3 -9 -1 -9 -8 0 -7 7 -13 16 -12 10 1 15 -6 13 -17 -2
-9 2 -17 8 -17 6 0 9 4 6 9 -7 11 28 43 37 34 4 -3 1 -13 -6 -22 -10 -14 -10
-14 4 -4 12 10 18 10 28 0 10 -9 11 -8 6 6 -4 9 -10 17 -14 17 -9 0 -11 39 -2
44 4 3 13 0 21 -5 13 -8 13 -10 0 -20 -13 -9 -13 -10 0 -6 8 2 16 10 16 18 1
8 3 19 4 24 1 6 2 14 1 18 -1 5 3 6 9 2 6 -3 7 -11 4 -17 -5 -7 -1 -9 8 -5 12
4 15 0 13 -19 -1 -13 2 -27 7 -30 4 -3 8 -2 7 3 -3 19 2 34 10 29 5 -3 14 1
21 9 7 8 9 15 5 15 -4 0 -2 7 5 15 7 8 17 15 23 15 6 0 2 -7 -9 -15 -13 -10
-15 -14 -5 -15 11 0 10 -5 -4 -20 -20 -22 -30 -54 -14 -44 5 3 7 9 4 14 -7 11
25 35 48 35 11 0 22 7 24 15 3 9 1 11 -4 5 -9 -12 -28 -13 -39 -3 -4 5 0 8 9
8 11 0 14 5 10 18 -6 15 -5 15 11 3 13 -11 20 -11 28 -3 13 13 58 16 58 4 0
-4 -5 -13 -11 -19 -8 -8 -8 -13 0 -18 6 -3 11 -3 10 2 -3 20 2 27 12 13 8 -12
9 -10 4 8 -6 21 -5 23 13 13 22 -11 39 0 27 18 -3 5 -1 12 5 16 6 4 8 11 5 16
-4 5 2 12 12 16 10 4 22 11 26 17 5 7 6 4 3 -7 -4 -12 -2 -17 6 -14 7 2 12 9
11 15 -2 6 6 9 17 7 18 -3 25 9 22 37 -1 3 6 12 15 20 14 11 16 11 8 -2 -5 -8
-11 -23 -12 -33 -2 -15 0 -15 16 -5 11 7 17 17 14 23 -4 5 -3 7 2 3 12 -11 47
11 38 25 -5 8 -2 8 9 -1 9 -7 14 -21 11 -33 -4 -15 -9 -17 -19 -8 -15 12 -38
3 -29 -12 4 -5 2 -9 -3 -9 -5 0 -9 -7 -9 -15 0 -24 14 -17 21 10 4 14 11 23
16 20 5 -3 7 -11 4 -19 -3 -7 1 -13 9 -13 8 0 14 7 13 16 0 9 4 15 10 14 6 -1
10 9 8 22 -4 38 11 38 45 0 16 -19 32 -31 35 -26 3 5 -1 12 -10 15 -8 3 -12
10 -9 16 4 6 11 7 17 4 6 -4 4 3 -5 17 -9 13 -17 27 -17 31 0 9 36 5 46 -5 4
-3 -3 -4 -15 -2 -12 2 -19 0 -16 -5 9 -14 40 -4 39 14 -1 9 5 16 13 16 9 0 11
-5 7 -12 -6 -10 -5 -10 8 -1 8 7 19 9 23 5 5 -4 5 -1 0 7 -5 9 -3 12 6 9 8 -3
13 -14 11 -24 -3 -18 -3 -18 11 1 9 11 13 23 11 27 -9 14 9 8 30 -9 l21 -18
-20 24 c-18 22 -18 24 -2 18 12 -4 16 -3 11 4 -4 8 1 9 17 4 13 -4 21 -4 16 0
-11 12 -51 13 -58 2 -4 -5 -15 -5 -28 2 -14 8 -21 8 -21 1 0 -5 7 -10 16 -10
8 0 12 -5 8 -11 -4 -7 -11 -6 -21 4 -16 16 -9 42 8 31 5 -3 17 0 26 8 9 7 19
13 22 13 3 0 5 6 5 13 -2 10 1 10 12 1 11 -9 14 -8 14 7 0 16 2 17 10 4 7 -11
3 -18 -13 -28 l-22 -13 24 7 c18 5 22 3 15 -7 -7 -12 -5 -12 9 0 9 7 15 17 12
21 -3 4 3 14 12 21 15 12 16 12 10 -5 -6 -15 -5 -17 6 -8 8 7 16 11 18 9 2 -1
-1 3 -8 9 -17 14 -4 27 13 13 7 -6 19 -9 26 -6 8 4 7 6 -4 6 -12 1 -16 7 -12
19 4 10 3 13 -3 6 -4 -6 -16 -10 -25 -9 -10 2 -16 -2 -15 -8 1 -7 -4 -11 -11
-9 -9 1 -11 -2 -6 -10 5 -9 1 -8 -12 2 -29 22 -30 24 -12 17 17 -6 42 14 33
27 -3 3 0 2 6 -3 15 -12 41 -2 32 13 -3 6 -2 8 2 3 5 -4 17 0 27 10 10 9 18
13 18 9 0 -4 6 -1 14 6 8 7 12 16 10 19 -2 4 2 6 9 5 6 0 12 3 12 9 0 5 -4 9
-8 7 -5 -1 -6 2 -2 8 5 8 11 8 20 0 9 -7 19 -5 36 10 13 10 18 19 12 20 -15 0
-18 20 -4 20 5 0 13 -9 16 -20 3 -11 13 -20 21 -20 17 0 19 16 2 26 -7 5 -8 2
-3 -7 5 -8 4 -11 -1 -6 -5 5 -9 12 -9 15 0 4 -4 12 -8 19 -4 6 -2 15 4 19 7 4
9 3 5 -4 -3 -6 -2 -13 4 -17 5 -3 10 0 11 7 0 7 5 2 11 -12 6 -14 11 -28 10
-31 -1 -4 8 -4 20 -1 21 5 21 6 2 13 -13 5 -14 8 -4 8 13 1 13 2 0 11 -21 13
-22 49 -1 45 9 -1 22 3 30 9 11 9 13 8 9 -4 -2 -8 -12 -15 -21 -15 -9 0 -16
-5 -14 -10 1 -6 6 -9 12 -7 22 8 32 23 33 53 0 17 10 41 21 53 12 13 18 26 14
31 -5 4 -3 5 3 2 7 -4 17 0 24 8 10 12 10 15 -1 15 -9 0 -8 4 3 13 9 6 18 19
22 27 3 8 4 0 1 -19 -2 -19 -10 -38 -17 -43 -10 -7 -8 -8 5 -4 9 3 17 2 17 -3
0 -16 -14 -20 -28 -8 -13 10 -14 9 -7 -2 5 -10 4 -12 -3 -7 -8 5 -10 1 -5 -9
4 -12 8 -13 13 -5 4 6 11 12 16 12 9 0 49 39 49 48 0 3 3 4 7 3 3 -1 12 5 20
15 12 15 11 16 -4 3 -10 -7 -18 -10 -18 -5 -1 5 -10 -2 -22 -16 l-21 -25 8 25
c8 27 24 42 37 34 4 -3 8 -1 8 5 0 5 -4 13 -10 16 -5 3 -10 1 -10 -4 0 -6 -5
-11 -11 -11 -5 0 -8 4 -5 9 4 5 3 11 -1 14 -5 2 -3 3 3 1 6 -1 17 3 23 9 6 6
11 8 11 4 0 -4 6 -2 14 5 15 14 10 41 -7 31 -5 -3 -7 -2 -4 4 4 6 18 9 32 7
17 -1 25 2 22 9 -2 7 -11 11 -21 9 -9 -2 -16 2 -16 8 0 5 6 9 13 7 6 -1 11 4
9 11 -2 9 2 10 17 1 10 -7 18 -19 17 -28 -1 -9 7 -16 19 -17 16 -1 20 5 20 30
0 23 4 31 17 30 10 -1 16 2 13 6 -3 5 0 10 6 12 6 2 0 9 -15 16 -16 7 -28 8
-31 2 -4 -6 4 -10 16 -10 30 0 19 -10 -17 -16 -22 -3 -25 -2 -14 6 8 5 11 10
6 10 -5 0 -3 6 3 13 6 8 8 17 4 21 -4 4 0 4 9 1 12 -5 15 0 13 25 -2 27 -1 29
14 18 9 -7 20 -17 24 -23 5 -6 7 -3 3 7 -3 10 -1 20 3 23 12 7 23 -24 15 -38
-5 -9 -4 -9 5 -1 10 9 10 17 1 34 -11 21 -10 22 6 16 18 -6 18 -5 0 9 -11 8
-17 16 -13 16 9 2 25 6 35 9 4 1 10 2 15 1 4 0 7 4 7 10 0 6 -6 9 -14 6 -7 -3
-19 0 -26 6 -10 9 -11 9 -6 -1 5 -8 2 -11 -6 -10 -7 2 -12 -3 -11 -10 2 -6 -3
-12 -10 -12 -9 0 -9 -2 1 -9 10 -6 10 -10 -1 -20 -11 -9 -17 -7 -28 6 -12 16
-12 17 2 5 14 -11 17 -9 17 15 0 16 -5 35 -12 43 -9 13 -9 13 6 2 21 -17 39
-7 32 16 -5 14 -4 15 5 2 5 -8 20 -16 31 -16 11 -1 18 1 16 4 -3 2 -1 12 4 21
5 11 5 23 -2 32 -8 11 -9 10 -4 -4 3 -10 2 -15 -3 -12 -5 3 -12 1 -16 -5 -3
-5 -1 -10 5 -10 6 0 8 -5 4 -11 -4 -7 -9 -8 -17 0 -7 7 -6 15 2 25 7 8 10 20
7 25 -4 5 -2 12 3 15 5 4 12 2 16 -4 4 -6 11 -7 17 -4 6 4 8 3 5 -2 -3 -6 -1
-16 4 -24 7 -11 8 -7 5 13 -4 25 -2 27 17 23 12 -3 16 -3 9 0 -6 3 -10 10 -7
15 4 5 -2 6 -11 2 -11 -4 -15 -3 -10 5 3 6 2 13 -3 17 -6 3 -8 -3 -6 -15 2
-11 0 -20 -6 -20 -7 0 -7 20 0 48 1 1 10 -2 22 -8 14 -8 24 -8 33 -1 7 6 17 7
21 3 5 -4 5 -1 0 6 -5 10 -10 11 -18 3 -15 -15 -32 -14 -20 2 12 16 16 87 5
87 -5 0 -9 7 -9 16 0 15 1 15 12 0 7 -8 15 -13 18 -9 4 3 1 13 -6 21 -8 11 -8
14 0 9 6 -4 13 -1 16 5 2 7 4 -1 3 -19 0 -17 -4 -29 -8 -27 -5 3 -8 1 -8 -4 0
-11 30 -25 38 -17 3 3 1 5 -5 5 -6 0 -8 19 -5 47 4 42 3 45 -14 39 -12 -4 -8
3 10 19 32 28 41 31 30 13 -4 -7 -4 -10 1 -6 4 4 14 3 22 -4 8 -6 13 -7 12 -2
-1 5 -1 16 0 24 1 13 2 13 11 0 8 -13 10 -13 10 2 0 9 -4 20 -10 23 -16 10
-12 21 13 33 12 6 16 11 10 11 -7 1 -22 -8 -33 -19 -16 -16 -20 -17 -20 -4 0
8 -4 13 -8 10 -5 -3 -9 1 -9 9 0 11 4 12 13 4 15 -12 48 17 37 34 -4 7 0 8 13
4 18 -7 18 -6 -1 9 -11 8 -19 21 -17 27 2 7 0 8 -4 4 -12 -12 -14 -38 -2 -31
7 4 8 2 4 -5 -4 -6 -12 -9 -17 -5 -5 3 -7 9 -4 14 3 5 -3 11 -12 13 -17 4 -17
5 0 6 11 1 15 6 11 13 -4 7 -3 8 4 4 7 -4 12 -2 12 4 0 7 5 6 14 -2 8 -7 11
-17 8 -22 -3 -5 0 -6 7 -2 6 4 9 11 6 16 -3 5 4 14 15 20 26 14 17 30 -12 22
-12 -3 -17 -7 -10 -10 7 -2 9 -8 6 -14 -3 -5 -13 0 -21 11 -8 12 -19 19 -24
16 -5 -4 -9 -1 -9 4 0 15 13 14 29 -1 12 -11 13 -10 7 6 -5 16 -4 17 9 6 13
-11 14 -10 9 5 -5 12 -4 16 4 11 6 -3 14 -1 18 5 4 8 3 9 -4 5 -7 -4 -12 -2
-12 5 0 8 -4 8 -12 2 -16 -12 -49 -13 -42 -1 3 5 10 6 15 2 13 -8 41 15 33 28
-3 5 1 19 9 32 11 16 12 27 5 42 -10 18 -10 18 10 -1 38 -36 52 -46 52 -36 0
6 -9 15 -20 21 -29 15 -25 28 8 24 l27 -3 -30 24 c-16 13 -26 27 -22 31 4 4 7
2 7 -3 0 -6 8 -10 18 -9 9 2 20 -1 23 -6 3 -5 9 -3 12 5 3 9 -1 14 -11 14 -35
0 -43 3 -36 14 4 7 -1 7 -16 -1 -17 -9 -25 -9 -34 0 -8 8 -7 10 5 5 19 -7 46
20 29 30 -5 3 -10 1 -10 -4 0 -6 -5 -11 -11 -11 -8 0 -7 5 2 16 12 15 15 14
36 -10 28 -33 30 -22 3 19 -11 17 -20 35 -20 40 0 6 5 3 10 -5 5 -8 10 -13 11
-10 0 3 2 13 4 23 2 12 -1 17 -10 13 -9 -3 -12 0 -8 10 10 26 29 13 25 -17 -1
-4 9 -6 22 -5 26 1 25 16 -1 16 -14 0 -14 3 3 23 10 12 12 16 4 10 -19 -17
-30 -16 -30 3 0 8 4 13 8 10 5 -3 9 1 9 9 0 8 -5 11 -10 8 -6 -4 -8 0 -4 10 5
12 0 15 -21 11 -27 -5 -27 -5 -5 11 24 17 26 62 3 90 -10 12 -10 15 -1 13 7
-2 15 8 17 21 3 14 7 27 10 30 3 3 5 -3 3 -14 -2 -11 0 -26 5 -34 6 -9 5 -12
-1 -8 -5 3 -10 0 -10 -8 0 -11 4 -12 13 -4 7 6 18 8 23 4 7 -3 8 0 5 9 -3 9
-10 13 -15 10 -5 -3 -9 2 -9 11 0 10 5 15 13 12 39 -16 50 -17 27 -3 -14 8
-21 15 -17 16 4 0 3 8 -2 18 -7 13 -7 22 0 29 8 8 7 13 0 17 -6 4 -11 4 -11 0
0 -4 -7 1 -15 12 -15 19 -15 19 -9 -1 4 -15 3 -17 -4 -6 -5 7 -8 21 -7 30 2 9
4 19 4 22 1 3 12 4 26 1 14 -2 25 0 25 7 0 6 -7 8 -17 4 -10 -4 -14 -2 -9 5 4
7 -3 9 -21 7 -16 -2 -22 -2 -15 1 6 3 10 9 8 13 -6 9 25 8 41 -2 21 -13 23 10
3 28 -15 14 -17 21 -9 32 9 9 9 13 0 13 -6 0 -11 -5 -11 -11 0 -5 -5 -7 -10
-4 -8 5 -8 11 0 20 7 8 7 16 2 19 -12 7 -25 -22 -16 -35 3 -5 0 -9 -7 -9 -7 0
-9 9 -6 22 4 14 0 29 -10 41 -16 17 -16 17 0 11 9 -3 17 -9 17 -14 0 -4 12 -7
28 -6 27 1 35 18 10 24 -9 2 -8 0 2 -7 18 -13 1 -14 -19 -2 -12 8 -9 11 12 16
26 7 27 8 10 22 -16 13 -16 14 -1 9 9 -3 19 2 22 10 9 23 7 31 -3 15 -5 -8
-16 -11 -26 -7 -16 6 -16 8 0 34 l18 27 -27 -25 c-22 -20 -29 -22 -36 -10 -5
8 -6 18 -4 22 3 4 0 8 -6 8 -6 0 -8 4 -5 10 3 6 17 10 31 10 13 0 24 4 24 9 0
6 -10 8 -21 6 -12 -3 -19 -2 -16 2 4 3 2 14 -3 24 -9 15 -7 17 11 14 12 -3 19
-1 15 2 -12 12 -40 12 -56 0 -13 -10 -13 -10 -3 3 11 15 13 20 13 42 0 6 6 4
13 -6 13 -17 15 -17 45 -2 34 17 44 30 15 19 -10 -4 -14 -2 -9 5 3 6 2 13 -4
17 -18 11 -11 23 10 18 11 -3 17 -10 13 -16 -4 -6 -1 -7 6 -2 21 12 -9 30 -46
26 -6 0 -10 -10 -8 -21 3 -13 0 -18 -7 -14 -7 4 -8 2 -4 -5 4 -6 11 -9 16 -6
5 3 11 1 14 -4 3 -5 -1 -11 -9 -15 -22 -8 -45 47 -24 59 5 4 7 11 3 16 -3 6
-12 3 -20 -8 -13 -17 -14 -17 -7 1 5 16 3 18 -13 13 -19 -7 -19 -7 0 8 18 14
12 20 -16 16 -4 0 -5 6 -1 15 3 8 2 14 -3 12 -5 -2 -10 0 -11 5 -6 16 -2 19
12 7 10 -8 15 -9 15 -2 0 6 6 9 14 6 10 -4 14 1 13 15 -1 14 -5 17 -13 11 -6
-6 -15 -6 -19 -2 -5 4 -4 0 0 -8 6 -11 3 -10 -12 3 -19 16 -29 52 -11 41 4 -3
8 -1 8 5 0 5 -6 11 -12 14 -7 2 -9 8 -5 13 10 11 28 -17 22 -33 -7 -21 15 -26
36 -7 12 11 19 13 19 5 0 -7 5 -9 11 -5 8 4 7 9 -2 15 -8 5 -20 2 -31 -8 -17
-15 -18 -15 -18 0 0 10 6 17 13 17 6 1 2 6 -11 13 -12 7 -20 16 -16 20 4 4 14
1 23 -6 14 -11 14 -10 2 5 -7 10 -17 16 -21 13 -10 -6 -25 33 -22 55 2 12 1
12 -6 2 -5 -8 -12 -13 -16 -13 -3 1 -7 1 -8 0 -22 -6 -38 -5 -38 3 0 6 7 8 15
4 12 -4 14 1 10 26 -7 39 -14 50 -26 43 -5 -3 -6 1 -3 9 3 9 -2 17 -14 20 -11
4 -25 13 -32 21 -17 21 13 13 35 -9 17 -16 19 -16 27 -2 5 9 13 14 19 11 5 -3
6 1 3 9 -5 14 -8 14 -21 1 -20 -21 -26 -19 -13 5 9 16 7 24 -5 36 -8 8 -15 12
-15 7 0 -5 5 -14 11 -20 8 -8 8 -13 0 -17 -6 -4 -11 0 -11 8 0 9 -5 16 -11 16
-8 0 -7 5 2 16 10 13 10 17 0 24 -9 5 -10 10 -2 14 6 4 11 12 11 19 0 6 -6 3
-13 -8 -18 -23 -37 -12 -29 18 5 20 4 21 -12 8 -9 -8 -19 -11 -23 -7 -3 3 -1
6 5 6 7 0 11 3 11 8 -3 20 3 21 26 6 20 -13 25 -14 23 -3 -2 9 4 13 17 11 l20
-4 -20 19 c-27 24 -31 47 -8 39 17 -6 17 -5 1 8 -10 7 -18 19 -18 26 0 7 -8
10 -20 7 -11 -3 -18 -1 -14 4 3 5 14 9 25 9 11 0 17 5 14 10 -4 6 -10 8 -14 6
-4 -3 -8 1 -8 7 0 7 9 14 19 14 10 1 16 -2 14 -6 -3 -4 -1 -13 3 -20 6 -9 11
-10 15 -2 4 6 3 11 -3 11 -10 0 -9 14 5 45 5 11 16 20 23 20 16 0 24 52 9 61
-4 3 -6 9 -3 14 3 5 0 12 -7 16 -7 4 -10 4 -6 -1 4 -4 3 -16 -3 -26 -8 -15 -6
-17 8 -12 15 6 16 4 6 -8 -10 -12 -10 -18 0 -29 10 -10 9 -12 -5 -7 -16 6 -35
-8 -38 -28 -1 -5 -4 -12 -7 -15 -4 -3 -3 0 1 7 3 6 -2 17 -11 23 -17 10 -16
10 2 8 15 -2 19 2 17 16 -2 11 1 15 7 11 6 -3 11 -1 11 6 0 6 -8 9 -20 6 -11
-3 -18 -1 -14 4 3 5 11 9 19 9 20 0 24 22 7 50 -13 23 -13 24 2 6 14 -18 21
-15 17 7 -1 5 3 6 9 2 6 -3 8 -11 5 -16 -4 -5 -1 -9 4 -9 15 0 14 40 -1 41 -7
1 -21 2 -30 2 -10 0 -15 4 -12 8 3 5 10 7 15 4 5 -4 9 0 9 7 0 10 2 10 9 -1 6
-9 11 -10 15 -2 4 6 16 11 27 11 10 0 19 4 19 10 0 5 -6 7 -13 4 -7 -2 -13 3
-14 14 -1 10 5 19 13 19 8 0 14 -4 14 -9 0 -4 5 -8 11 -8 8 0 9 4 0 13 -6 8
-7 18 -3 23 4 4 0 3 -8 -3 -13 -10 -18 -8 -27 6 -6 10 -8 24 -3 31 5 8 7 17 5
20 -2 4 2 7 10 7 11 0 12 -4 3 -14 -9 -11 -7 -12 7 -7 12 5 16 4 11 -4 -3 -6
-2 -14 4 -17 6 -4 9 -1 8 7 -2 7 3 12 10 10 8 -1 11 2 7 8 -3 6 -11 7 -17 4
-8 -5 -9 -1 -5 10 4 10 3 15 -3 11 -6 -3 -10 -1 -10 5 0 6 -4 9 -8 6 -4 -2
-14 -1 -22 5 -10 5 -10 9 -3 9 6 0 10 9 8 19 -2 13 1 18 10 15 7 -3 16 0 21 7
4 8 3 10 -4 5 -7 -4 -12 -3 -12 3 0 19 19 21 29 4 6 -11 11 -13 11 -5 0 7 5
10 10 7 6 -4 7 -11 4 -17 -4 -7 -2 -8 4 -4 16 10 15 12 -10 35 -16 16 -25 18
-35 9 -15 -12 -28 -5 -19 11 4 5 20 8 36 6 16 -2 32 0 35 5 4 6 -1 7 -11 3
-12 -5 -15 -3 -9 6 6 10 2 11 -16 6 -20 -6 -22 -5 -11 6 16 17 16 37 0 21 -15
-15 -28 -15 -28 0 0 6 3 8 7 5 11 -12 33 15 33 42 1 25 1 25 15 7 8 -11 15
-16 15 -10 -1 12 -25 44 -34 44 -4 0 -5 -3 -2 -8 2 -4 -1 -18 -8 -31 -12 -21
-14 -21 -20 -6 -4 12 1 26 14 40 22 24 27 61 8 69 -7 2 -2 3 11 2 14 -2 27 -8
29 -14 2 -7 8 -12 14 -12 7 0 7 4 -1 13 -6 8 -7 17 -1 23 6 6 5 15 -1 24 -8
12 -9 11 -7 -5 2 -15 -2 -19 -17 -17 -11 2 -23 9 -27 15 -5 8 -8 7 -8 -3 0
-12 -2 -13 -9 -1 -7 11 -9 11 -13 0 -3 -8 -8 -12 -11 -9 -4 3 5 19 18 34 14
16 22 33 19 37 -3 5 0 9 5 9 27 0 8 15 -20 16 -17 1 -27 -1 -22 -5 12 -8 11
-35 -2 -38 -5 -1 -9 7 -7 17 2 13 -2 20 -12 20 -8 0 -17 4 -20 9 -4 5 4 7 16
4 21 -4 21 -3 6 9 -15 13 -15 15 0 25 10 6 13 14 8 19 -5 5 -11 4 -13 -3 -3
-7 -8 -13 -13 -13 -9 0 -7 41 4 59 4 7 -2 15 -16 20 -22 9 -22 12 5 15 11 1
19 75 7 74 -17 -1 -21 4 -11 15 8 10 7 14 -4 14 -8 0 -13 -3 -10 -5 3 -3 0
-11 -7 -19 -6 -7 -8 -16 -4 -20 3 -3 6 -1 6 6 0 7 5 9 10 6 14 -9 12 -25 -2
-25 -7 0 -14 -13 -15 -30 -1 -16 -3 -36 -4 -43 -3 -17 -26 -18 -26 -1 0 7 4
11 8 9 3 -3 9 5 13 18 4 14 0 26 -11 35 -9 6 -12 12 -5 12 7 0 12 5 12 11 0 5
-5 7 -10 4 -14 -9 -7 30 9 49 7 9 11 17 7 17 -3 1 -12 2 -18 3 -7 1 -12 7 -11
14 2 7 -2 12 -7 12 -6 0 -10 -6 -10 -14 0 -8 -5 -18 -10 -21 -7 -4 -9 7 -6 29
3 20 1 34 -4 31 -5 -3 -6 -13 -3 -23 6 -15 5 -15 -10 -3 -9 7 -17 10 -17 5 0
-5 -7 0 -15 10 -8 11 -15 14 -15 8 0 -7 -5 -12 -11 -12 -8 0 -8 5 1 15 7 8 15
13 19 11 3 -2 15 0 26 5 16 6 11 8 -18 8 -23 1 -36 5 -32 11 3 6 1 10 -4 10
-6 0 -10 -8 -8 -17 1 -10 -2 -19 -7 -20 -5 -1 -12 -7 -17 -15 -5 -8 -7 -1 -5
17 2 17 5 30 6 30 1 0 3 8 5 18 3 18 -27 42 -39 30 -9 -9 -8 2 3 29 7 20 6 24
-10 25 -10 1 -22 -3 -25 -9 -5 -7 -1 -9 9 -5 11 4 17 1 17 -9 0 -8 -4 -13 -9
-10 -5 4 -7 -3 -4 -14 5 -18 3 -19 -21 -10 -19 7 -26 6 -26 -3 0 -8 -3 -7 -9
2 -5 8 -7 19 -5 26 3 6 -2 12 -10 12 -8 0 -12 -6 -9 -14 3 -7 1 -13 -5 -13 -6
0 -9 8 -7 18 2 9 4 21 4 25 1 4 10 3 21 -3 14 -8 20 -8 20 0 0 6 4 8 10 5 6
-3 7 1 4 9 -3 9 -10 16 -16 16 -5 0 -6 -4 -3 -10 3 -5 -1 -10 -9 -10 -9 0 -16
4 -16 8 0 5 -7 17 -16 28 -8 10 -13 13 -9 7 3 -7 2 -13 -4 -13 -15 0 -42 30
-36 40 3 5 1 11 -4 14 -5 4 -7 -6 -5 -22 3 -21 1 -29 -11 -29 -8 0 -15 3 -15
7 0 3 -6 14 -13 25 -14 19 -15 17 -8 -36 1 -4 17 -5 36 -3 19 1 35 -2 35 -7 0
-6 -4 -7 -10 -4 -5 3 -10 2 -10 -4 0 -5 6 -12 13 -14 9 -4 9 -6 -1 -6 -7 -1
-15 6 -18 14 -4 8 -10 12 -15 9 -5 -3 -6 -11 -2 -17 5 -9 3 -9 -8 0 -11 9 -19
9 -26 2 -8 -8 -13 -8 -17 0 -4 6 -4 11 1 11 4 0 1 5 -7 11 -12 9 -11 10 5 5
18 -6 19 -5 3 7 -10 8 -14 17 -8 23 5 5 1 19 -11 34 -11 14 -18 18 -17 10 2
-8 10 -21 18 -28 13 -12 13 -13 -2 -8 -12 3 -15 1 -12 -9 3 -7 -4 -18 -15 -25
-12 -6 -21 -8 -21 -4 0 4 -9 -1 -20 -11 -11 -10 -20 -14 -21 -9 0 5 -2 20 -4
34 -2 14 -1 19 1 12 3 -6 11 -9 17 -5 7 4 6 -1 -2 -10 -8 -10 -9 -17 -3 -17 6
0 14 5 17 10 4 6 11 8 16 5 5 -4 9 1 9 9 0 8 -4 18 -10 21 -5 3 -10 11 -10 17
0 6 7 5 18 -3 14 -11 15 -11 5 0 -6 7 -9 21 -6 30 3 13 2 12 -7 -2 -6 -9 -16
-15 -21 -11 -15 9 -6 -20 11 -34 12 -10 10 -10 -12 -3 -22 8 -29 6 -42 -12
-13 -18 -14 -19 -9 -3 5 14 3 17 -6 12 -7 -5 -20 -1 -30 8 -15 14 -17 13 -18
-7 0 -12 1 -16 4 -10 3 10 8 10 19 -1 16 -16 19 -30 5 -21 -6 3 -15 -3 -21
-12 -11 -17 -11 -17 -6 1 5 14 2 17 -9 12 -10 -4 -14 -2 -9 5 4 7 1 10 -7 7
-8 -3 -13 -16 -12 -29 2 -22 2 -22 -6 -4 -4 11 -7 32 -6 48 2 15 -2 27 -7 27
-6 0 -7 -7 -4 -15 3 -9 -1 -18 -9 -21 -8 -4 -15 -10 -15 -16 0 -5 5 -6 10 -3
7 4 10 -6 8 -28 -1 -26 -6 -33 -17 -29 -9 3 -12 1 -7 -6 4 -7 3 -12 -3 -12 -5
0 -12 -9 -16 -19 -4 -12 -12 -18 -21 -14 -11 4 -12 8 -3 19 10 12 9 13 -5 8
-11 -4 -15 -12 -10 -23 3 -9 8 -25 10 -36 l4 -20 -9 20 -10 20 0 -20 c-1 -16
-3 -17 -11 -5 -5 8 -12 11 -16 7 -4 -4 -17 1 -28 10 -21 18 -21 18 -3 -3 10
-12 15 -28 11 -38 -4 -11 -1 -16 12 -16 18 -1 18 -1 2 -11 -11 -6 -15 -16 -11
-27 6 -16 6 -16 -11 1 -9 9 -22 17 -29 17 -6 0 -3 -6 7 -13 15 -11 17 -18 8
-33 -6 -10 -12 -14 -12 -8 0 5 -7 19 -15 30 -14 18 -15 17 -13 -13 1 -18 6
-33 11 -33 4 0 5 -5 1 -11 -4 -8 -9 -7 -15 2 -4 7 -6 16 -3 20 2 4 -1 11 -7
15 -8 5 -9 3 -4 -6 6 -10 4 -12 -10 -6 -15 6 -16 4 -4 -10 7 -8 14 -25 14 -37
2 -20 2 -20 -14 0 -9 11 -24 20 -34 20 -11 0 -14 -4 -7 -12 13 -16 1 -55 -16
-48 -8 3 -12 9 -9 13 3 5 0 12 -7 16 -7 4 -10 4 -6 -1 4 -4 3 -14 -4 -22 -6
-8 -7 -13 -2 -12 21 4 26 -2 14 -16 -11 -13 -10 -14 6 -9 18 6 18 6 -1 -9 -10
-8 -26 -12 -34 -9 -9 3 -12 1 -7 -6 5 -8 2 -10 -8 -6 -16 6 -23 25 -8 23 19
-3 32 2 32 12 0 8 -6 7 -17 -2 -15 -12 -16 -12 -10 6 l7 20 -16 -20 c-8 -11
-22 -19 -30 -17 -8 2 -14 -2 -14 -8 0 -5 -5 -10 -11 -10 -8 0 -7 5 1 15 10 13
10 19 -2 33 -9 9 -13 22 -11 29 6 16 -14 26 -23 12 -4 -8 -3 -9 4 -5 7 4 12 3
12 -2 0 -18 -13 -20 -35 -6 -20 13 -24 13 -39 -1 -9 -9 -14 -20 -12 -24 3 -4
-1 -8 -9 -8 -18 0 -20 13 -2 21 9 3 7 8 -5 16 -9 6 -15 17 -12 25 4 8 1 15 -4
15 -6 0 -9 -15 -7 -32 2 -18 1 -27 -2 -20 -2 6 -9 12 -14 12 -6 0 -7 -4 -4
-10 4 -6 -1 -7 -11 -3 -15 5 -15 7 0 15 20 12 21 38 0 38 -9 0 -12 5 -8 12 4
7 3 8 -4 4 -6 -4 -9 -13 -6 -21 4 -8 11 -12 17 -8 6 4 7 1 2 -6 -10 -17 -28 1
-30 31 -1 12 -8 24 -16 26 -8 2 -10 0 -4 -5 13 -10 17 -73 5 -73 -5 0 -7 9 -5
19 5 28 -41 34 -65 9 -17 -19 -18 -19 -17 -1 1 10 -4 17 -10 15 -7 -1 -13 2
-13 7 0 12 26 21 35 13 9 -10 65 -10 59 -1 -2 4 -16 5 -31 3 -22 -4 -24 -3
-14 10 11 13 9 14 -14 10 -19 -3 -25 -1 -20 8 3 7 -2 3 -11 -9 -9 -13 -21 -23
-27 -23 -8 0 -8 3 0 11 6 6 9 18 6 27 -5 11 -3 13 7 7 9 -5 11 -4 6 4 -9 14
-29 4 -23 -12 2 -7 -2 -17 -9 -24 -18 -18 -29 -16 -14 2 7 9 10 18 7 22 -4 3
-2 12 4 19 7 8 6 14 -2 20 -8 4 -9 3 -5 -4 4 -7 2 -12 -4 -12 -6 0 -10 -8 -8
-17 2 -12 -5 -17 -24 -18 -16 -1 -28 2 -28 7 0 5 -9 4 -21 -2 -11 -7 -23 -9
-27 -6 -3 3 0 6 7 6 7 0 10 4 6 9 -6 11 33 36 43 27 3 -3 -1 -6 -8 -6 -21 0 2
-20 29 -25 12 -2 19 0 16 6 -4 5 -10 7 -15 4 -5 -3 -11 -1 -15 5 -3 5 2 10 12
11 14 0 12 3 -6 10 -13 5 -26 7 -29 4 -3 -3 -15 3 -26 12 -20 17 -20 17 -7 0
8 -9 11 -20 7 -24 -3 -4 -12 1 -19 10 -9 13 -16 14 -27 6 -13 -9 -12 -10 2 -5
13 4 15 1 11 -11 -4 -11 -2 -14 5 -9 7 4 12 2 12 -3 0 -17 -15 -13 -34 8 -11
12 -14 21 -7 26 7 4 8 12 1 24 -5 10 -6 22 -2 26 4 5 1 5 -6 1 -7 -4 -10 -11
-7 -16 3 -5 1 -11 -4 -15 -6 -3 -8 -12 -5 -20 8 -20 -25 -32 -37 -14 -9 16
-31 19 -40 6 -3 -5 -9 -2 -12 6 -4 11 2 14 24 12 18 -2 26 1 22 8 -4 6 0 8 9
5 9 -4 15 0 15 8 0 12 -5 11 -25 -2 -23 -15 -25 -15 -19 0 4 9 3 15 -2 11 -5
-3 -12 1 -15 7 -3 7 -3 3 0 -9 4 -17 1 -21 -13 -18 -10 2 -20 4 -23 4 -3 1 1
5 8 10 11 7 10 9 -3 14 -9 4 -13 3 -10 -3 3 -6 2 -10 -4 -10 -6 0 -9 -14 -7
-32 4 -29 3 -31 -10 -14 -7 11 -11 23 -8 27 3 5 -2 6 -10 3 -15 -6 -20 -18
-17 -37 1 -5 -3 -6 -9 -2 -11 7 4 44 24 57 8 6 8 8 0 8 -6 0 -17 -7 -24 -15
-16 -19 -26 -19 -34 1 -5 13 -3 14 6 7 9 -7 18 -4 30 8 14 15 14 18 2 23 -9 3
-12 1 -9 -4 3 -6 1 -11 -4 -11 -6 -1 -17 -2 -23 -3 -7 -1 -12 -10 -10 -21 2
-11 -1 -16 -5 -10 -13 16 -46 19 -38 3 6 -10 5 -11 -6 0 -18 17 -40 15 -33 -3
4 -8 11 -12 17 -8 6 4 7 1 2 -7 -6 -10 -11 -9 -21 4 -7 10 -16 18 -21 18 -4 0
-13 3 -20 5 -6 3 -22 -1 -35 -7 -21 -10 -21 -10 -5 3 22 18 22 28 0 20 -12 -5
-14 -3 -8 7 5 9 4 11 -3 6 -7 -4 -12 -2 -12 5 0 7 -3 9 -7 6 -3 -4 -12 -2 -20
5 -7 6 -16 8 -20 4 -3 -3 -1 -6 6 -6 7 0 9 -4 6 -10 -4 -6 -13 -5 -25 2 -15
10 -17 15 -7 28 11 13 10 13 -6 1 -18 -15 -18 -15 0 -28 16 -12 14 -13 -19 -9
-36 4 -55 -4 -41 -18 3 -3 12 -1 20 6 9 7 17 8 24 1 6 -6 2 -16 -13 -29 -17
-14 -19 -14 -10 -2 12 15 11 17 -7 15 -12 -1 -21 -4 -21 -7 0 -3 -9 -6 -20 -7
-16 -1 -19 3 -16 22 3 14 8 30 11 37 4 7 0 5 -8 -5 -11 -14 -16 -15 -20 -5 -4
9 -6 10 -6 1 -1 -7 -8 -10 -18 -6 -15 5 -14 3 2 -10 11 -8 23 -13 27 -11 4 3
5 -3 1 -12 -4 -11 -8 -13 -11 -6 -2 7 -8 12 -13 12 -6 0 -6 -7 0 -18 7 -14 6
-19 -3 -19 -7 0 -13 5 -12 11 1 6 -3 11 -9 11 -5 0 -9 -4 -7 -8 1 -5 -2 -6 -8
-2 -5 3 -10 0 -10 -7 0 -8 -5 -6 -11 5 -5 9 -14 17 -19 17 -6 0 -10 -8 -11
-17 0 -11 -3 -13 -6 -5 -2 6 -8 10 -12 8 -4 -3 -8 2 -8 10 0 8 6 13 13 10 6
-2 22 3 35 11 12 9 20 12 16 6 -3 -5 0 -10 8 -10 19 0 19 13 0 21 -9 3 -12 12
-9 23 5 17 5 17 -6 0 -6 -9 -16 -15 -21 -11 -5 3 -9 2 -8 -3 1 -4 1 -15 0 -23
-1 -12 -5 -11 -16 4 -13 17 -15 18 -15 3 0 -9 -5 -17 -11 -17 -5 0 -7 5 -4 10
3 6 1 10 -4 10 -12 0 -14 -13 -4 -24 10 -10 11 -46 1 -40 -5 4 -7 12 -5 18 3
7 -4 18 -15 25 -18 11 -18 10 -8 -9 15 -28 4 -43 -20 -28 -10 7 -16 16 -13 21
3 4 11 0 19 -10 7 -10 14 -13 14 -7 0 15 -25 36 -33 27 -13 -12 -7 13 6 27 10
12 9 12 -5 1 -19 -14 -19 -41 1 -64 10 -13 9 -15 -6 -12 -10 1 -17 8 -16 14 2
6 -1 11 -7 11 -5 0 -7 8 -4 18 4 10 2 13 -3 7 -4 -5 -14 -10 -22 -10 -8 0 -16
-7 -18 -15 -4 -13 -3 -13 6 0 8 12 13 12 23 2 6 -6 8 -12 4 -12 -5 0 -2 -8 5
-17 13 -17 13 -17 -5 -3 -18 14 -19 13 -13 -5 l7 -20 -15 20 c-9 11 -20 21
-25 21 -6 1 -17 2 -25 3 -8 0 -15 9 -16 19 0 11 -2 12 -6 4 -4 -9 -8 -10 -18
-2 -10 8 -15 8 -20 0 -5 -8 -12 -7 -23 2 -15 12 -16 11 -3 -4 14 -19 10 -21
-41 -21 -10 0 -15 -4 -12 -8 3 -5 1 -9 -5 -9 -9 0 -8 -31 3 -48 3 -5 -1 -9 -8
-9 -9 0 -12 7 -8 16 5 13 3 14 -9 4 -13 -10 -16 -10 -16 2 0 8 5 11 10 8 6 -4
7 -1 2 7 -5 8 -4 11 1 7 5 -3 10 3 10 14 0 19 -1 18 -18 -3 -10 -13 -18 -26
-18 -29 0 -3 -7 -6 -15 -6 -10 0 -14 7 -10 21 3 12 2 15 -1 8 -5 -10 -9 -9
-20 5 -12 15 -13 15 -8 2 3 -10 0 -20 -6 -24 -8 -5 -8 -11 -1 -19 8 -9 6 -18
-5 -32 -15 -18 -15 -18 -5 3 8 16 7 22 -5 27 -9 3 -12 2 -9 -5 10 -15 -14 -39
-32 -32 -10 4 -14 2 -10 -4 4 -6 -1 -17 -11 -24 -15 -13 -16 -12 -3 4 7 9 10
17 6 17 -4 0 -2 7 5 15 10 13 11 18 1 28 -7 7 -12 8 -11 2 4 -20 0 -36 -8 -31
-12 7 -38 -12 -29 -21 5 -4 13 -1 18 7 9 12 10 12 5 -3 -3 -10 -6 -21 -6 -23
0 -3 -4 -2 -10 1 -5 3 -10 -2 -11 -12 0 -16 -1 -16 -8 2 -5 11 -6 26 -4 33 3
6 0 12 -7 12 -6 0 -8 4 -5 10 4 6 -1 7 -11 3 -15 -6 -15 -7 0 -15 14 -8 15
-12 4 -26 -7 -9 -8 -13 -2 -9 6 3 11 0 11 -8 0 -11 -4 -11 -21 0 -12 8 -26 11
-31 7 -16 -12 -36 -52 -30 -62 3 -5 0 -12 -6 -16 -7 -4 -9 -3 -5 4 3 6 -1 17
-9 25 -20 20 -19 27 3 22 11 -2 19 3 19 11 0 8 -4 14 -9 14 -4 0 -8 -6 -8 -12
0 -9 -4 -8 -10 2 -9 13 -10 13 -10 0 0 -13 -1 -13 -10 0 -8 13 -10 12 -10 -3
0 -11 -5 -16 -12 -12 -7 4 -2 -3 11 -14 13 -12 18 -21 11 -21 -10 0 -10 -3 0
-15 9 -10 9 -15 1 -15 -6 0 -11 5 -11 11 0 5 -5 7 -12 3 -7 -4 -8 -3 -4 4 4 7
2 12 -4 12 -6 0 -8 5 -4 13 6 8 3 8 -9 -1 -19 -16 -39 -8 -30 13 3 8 0 15 -6
15 -6 0 -10 -5 -9 -12 2 -7 -4 -12 -12 -13 -8 0 -14 -8 -12 -16 1 -9 -6 -22
-15 -30 -10 -7 -14 -9 -10 -4 4 5 -3 15 -15 22 -19 11 -20 13 -4 11 10 -2 21
4 23 12 3 9 1 11 -4 5 -4 -5 -18 -10 -29 -11 -16 0 -20 4 -16 15 3 9 10 19 15
22 5 4 5 9 -2 13 -6 4 -11 2 -11 -4 0 -6 -8 -4 -17 6 -11 11 -18 13 -21 5 -2
-6 -8 -11 -13 -11 -6 0 -5 9 2 21 6 12 14 17 18 12 8 -12 42 -13 35 -1 -3 5
-2 15 3 21 4 7 1 5 -8 -4 -13 -14 -19 -15 -28 -6 -10 9 -15 8 -26 -7 -8 -10
-19 -15 -25 -11 -6 4 -7 12 -2 18 4 7 8 21 7 32 0 11 3 29 8 40 8 20 8 20 -7
1 -9 -11 -16 -16 -16 -10 -1 5 -10 -2 -20 -15 -16 -18 -20 -20 -20 -7 0 9 -7
19 -15 22 -21 9 -19 42 3 40 9 0 21 -5 25 -11 5 -6 7 -4 4 5 -2 8 -12 15 -23
15 -10 0 -18 6 -17 13 5 20 -7 14 -18 -10 -9 -21 -9 -21 -4 5 3 15 1 27 -5 27
-5 0 -10 -4 -10 -10 0 -5 -5 -10 -11 -10 -5 0 -7 5 -4 10 3 6 2 10 -3 10 -6 0
-13 7 -16 16 -3 8 -2 13 2 10 4 -2 14 0 22 5 12 8 11 9 -5 7 -13 -2 -20 3 -20
14 0 9 -4 20 -9 25 -5 5 -6 2 -1 -5 5 -10 2 -13 -11 -10 -13 2 -21 15 -25 43
-3 22 -7 32 -8 23 0 -10 -5 -18 -10 -18 -5 0 -7 9 -4 20 3 12 0 20 -6 20 -7 0
-10 4 -6 10 3 5 13 7 23 4 15 -5 15 -4 -1 6 -9 6 -14 16 -11 22 4 7 2 8 -5 4
-6 -4 -9 -11 -6 -16 3 -5 1 -12 -5 -15 -8 -5 -8 -11 -1 -19 8 -10 5 -12 -12
-10 -12 1 -23 3 -24 4 -8 7 -29 5 -34 -3 -3 -5 -9 -1 -12 7 -5 13 -1 16 16 14
12 -2 28 -7 35 -11 16 -11 15 1 -1 18 -8 7 -22 13 -33 12 -11 -1 -19 4 -19 13
0 8 -3 20 -6 25 -4 6 -5 20 -4 33 2 23 -1 27 -9 14z m-31 -111 c3 -5 1 -12 -5
-16 -6 -4 -8 -11 -5 -16 11 -17 -2 -9 -21 13 -13 16 -14 19 -2 10 10 -8 19 -9
22 -3 3 5 0 12 -6 14 -9 4 -10 6 -1 6 6 1 14 -3 18 -8z m-205 -43 c0 -5 -5 -8
-11 -8 -5 0 -7 5 -4 10 3 6 1 10 -5 10 -6 0 -8 5 -4 11 6 11 23 -6 24 -23z
m3490 21 c0 -5 -5 -7 -12 -3 -7 5 -9 2 -6 -8 4 -8 0 -15 -7 -15 -10 0 -11 5
-4 19 11 20 29 24 29 7z m160 4 c0 -5 -7 -16 -14 -26 -12 -16 -13 -15 -13 8 0
15 5 25 13 25 8 0 14 -3 14 -7z m-3566 -19 c3 -8 2 -12 -4 -9 -6 3 -10 10 -10
16 0 14 7 11 14 -7z m-43 -27 c-10 -9 -11 -8 -5 6 3 10 9 15 12 12 3 -3 0 -11
-7 -18z m3625 -39 c3 -4 -1 -5 -10 -4 -8 1 -18 5 -22 8 -3 4 1 5 10 4 8 -1 18
-5 22 -8z m121 -12 c0 -8 -7 -12 -15 -8 -9 3 -13 1 -9 -5 5 -7 0 -9 -13 -6
-11 3 -20 9 -20 14 0 5 7 6 15 2 9 -3 15 -2 14 3 -3 18 1 23 14 18 8 -3 14
-11 14 -18z m-71 -1 c-3 -8 2 -19 12 -24 9 -6 12 -11 5 -11 -13 0 -26 17 -29
38 -1 6 2 12 8 12 6 0 8 -7 4 -15z m-1833 -42 c-4 -11 -8 -12 -11 -5 -3 9 -9
9 -24 1 -15 -8 -19 -8 -14 0 4 6 2 11 -3 11 -10 0 -15 -14 -12 -33 1 -5 -3 -6
-8 -2 -7 4 -6 14 1 30 6 13 14 22 19 20 4 -3 10 -1 14 5 11 17 45 -8 38 -27z
m1802 17 c-3 -5 -12 -10 -18 -10 -7 0 -6 4 3 10 19 12 23 12 15 0z m-3789 -12
c4 -7 4 -10 -1 -6 -4 4 -15 2 -24 -5 -14 -11 -14 -10 -2 6 16 20 18 21 27 5z
m2037 -23 c-3 -9 -8 -14 -10 -11 -3 3 -2 9 2 15 9 16 15 13 8 -4z m267 -28 c0
-16 -18 3 -23 25 -6 22 -5 22 8 4 8 -11 15 -24 15 -29z m-851 -5 c-6 -3 -5
-10 3 -20 9 -13 7 -12 -9 1 -23 20 -69 15 -57 -5 4 -7 2 -8 -5 -4 -6 4 -9 11
-7 15 3 4 -6 7 -19 7 -13 0 -22 -3 -20 -6 2 -3 -1 -12 -6 -20 -7 -11 -8 -9 -6
9 2 13 11 25 19 27 31 4 58 16 58 24 0 5 13 1 30 -8 16 -9 25 -19 19 -20z
m2465 9 c3 -5 -1 -14 -8 -20 -10 -9 -16 -9 -21 -1 -4 6 -1 9 7 8 7 -2 12 3 11
10 -3 14 3 16 11 3z m-1560 -17 c3 -8 2 -12 -4 -9 -6 3 -10 10 -10 16 0 14 7
11 14 -7z m1632 -21 c1 -16 4 -35 8 -42 5 -7 2 -10 -6 -9 -7 2 -12 -2 -11 -8
1 -6 -4 -11 -10 -11 -7 0 -13 8 -13 18 0 9 6 15 13 12 20 -8 15 7 -9 29 -13
11 -17 17 -10 13 6 -3 12 -2 12 3 0 17 -13 22 -29 9 -14 -10 -14 -10 -4 4 7 9
23 15 35 14 18 -1 23 -8 24 -32z m-4165 3 c-6 -7 -9 -21 -5 -30 9 -24 -14 -19
-27 7 -6 12 -8 19 -4 15 4 -4 14 -1 22 7 18 19 29 20 14 1z m1531 -8 c-7 -7
-12 -8 -12 -2 0 14 12 26 19 19 2 -3 -1 -11 -7 -17z m2693 -8 c-8 -8 -19 -27
-25 -40 -9 -22 -10 -21 -4 10 4 26 3 31 -5 20 -6 -8 -11 -10 -11 -4 0 16 21
33 41 31 16 -1 16 -3 4 -17z m-3378 -20 c-1 -10 -5 -17 -9 -14 -4 3 -4 12 -1
21 5 12 3 14 -7 8 -9 -5 -11 -4 -6 4 10 16 25 4 23 -19z m591 2 c4 -14 0 -15
-22 -6 -9 3 -16 10 -16 14 0 12 33 5 38 -8z m1279 2 c-3 -3 -12 -4 -19 -1 -8
3 -5 6 6 6 11 1 17 -2 13 -5z m-2677 -21 c-29 -20 -60 -27 -60 -14 0 6 9 8 19
6 11 -2 25 3 32 11 6 8 16 14 22 14 6 0 0 -8 -13 -17z m-60 -39 c0 -3 -5 -2
-12 2 -7 5 -9 0 -6 -14 5 -16 2 -19 -11 -14 -14 5 -14 4 -1 -13 15 -19 14 -19
-10 0 -17 12 -25 27 -24 44 2 14 3 27 3 28 2 3 61 -29 61 -33z m2894 10 c3 -8
2 -12 -4 -9 -6 3 -10 10 -10 16 0 14 7 11 14 -7z m429 -13 c3 -12 0 -18 -7
-15 -6 2 -12 13 -12 24 0 23 12 17 19 -9z m-1934 9 c-6 -5 -18 -6 -26 -3 -19
8 -16 11 13 11 17 0 22 -3 13 -8z m2918 -11 c2 -16 -1 -19 -9 -11 -5 5 -7 15
-4 21 10 15 12 14 13 -10z m-86 -12 c-10 -9 -11 -8 -5 6 3 10 9 15 12 12 3 -3
0 -11 -7 -18z m-2991 -12 c5 3 11 1 14 -4 4 -5 -2 -8 -11 -6 -10 2 -21 4 -25
4 -4 1 -4 9 0 19 6 16 7 16 10 -1 2 -9 7 -15 12 -12z m1870 3 c0 -6 6 -8 14
-5 23 9 39 -18 21 -33 -9 -7 -15 -8 -15 -2 0 6 6 13 13 15 7 4 6 6 -5 6 -9 1
-19 -5 -21 -11 -3 -7 -6 -4 -7 7 -1 20 -1 20 -15 1 -8 -11 -15 -15 -15 -10 0
6 6 16 13 23 10 11 9 13 -5 8 -12 -4 -15 -2 -12 8 6 15 34 9 34 -7z m1160 13
c0 -6 -4 -13 -10 -16 -5 -3 -10 1 -10 9 0 9 5 16 10 16 6 0 10 -4 10 -9z
m-4240 -22 c0 -5 -4 -9 -8 -9 -5 0 -9 7 -9 15 0 8 4 12 9 9 4 -3 8 -9 8 -15z
m915 1 c3 -6 -1 -7 -9 -4 -18 7 -21 14 -7 14 6 0 13 -4 16 -10z m-985 -15 c7
-8 9 -15 4 -15 -5 0 -1 -5 9 -11 9 -5 17 -15 17 -22 0 -8 -3 -8 -9 1 -7 11
-23 18 -53 21 -5 1 -4 20 1 39 3 7 20 0 31 -13z m1113 -23 c8 -7 17 -9 19 -5
3 4 3 3 2 -4 -2 -6 2 -13 9 -16 7 -2 -5 -4 -26 -4 -26 0 -36 4 -33 12 2 7 0
17 -6 23 -15 15 16 10 35 -6z m3247 13 c0 -1 -10 -10 -22 -21 -14 -12 -18 -13
-10 -3 6 9 10 18 7 21 -3 2 2 5 10 5 8 0 15 -1 15 -2z m-1195 -27 c5 4 5 1 1
-6 -6 -10 -11 -10 -22 -1 -8 6 -14 14 -14 16 0 3 6 0 13 -6 8 -6 18 -7 22 -3z
m-3160 -27 c3 -5 0 -13 -6 -17 -7 -4 -9 -3 -5 4 12 19 -15 25 -32 7 -16 -17
-16 -17 1 -12 10 4 15 3 12 -2 -8 -14 -44 -9 -50 7 -2 7 0 10 5 7 13 -8 42 20
32 30 -4 4 3 3 15 -4 12 -6 24 -15 28 -20z m4302 14 c0 -8 -4 -12 -9 -9 -5 3
-6 10 -3 15 9 13 12 11 12 -6z m-3157 -29 c0 -2 -7 -7 -16 -10 -8 -3 -12 -2
-9 4 6 10 25 14 25 6z m3277 -61 c0 -8 -4 -12 -9 -9 -5 3 -6 10 -3 15 9 13 12
11 12 -6z m-57 -5 c0 -5 -2 -10 -4 -10 -3 0 -8 5 -11 10 -3 6 -1 10 4 10 6 0
11 -4 11 -10z m-4462 -36 c0 -27 -15 -41 -41 -41 -16 0 -16 2 -1 18 13 14 14
22 5 33 -9 11 -7 14 13 14 18 0 24 -6 24 -24z m36 -50 c3 -8 2 -12 -4 -9 -6 3
-10 10 -10 16 0 14 7 11 14 -7z m-79 -14 c-3 -5 -1 -10 5 -10 7 0 9 -7 6 -16
-3 -9 5 -25 22 -41 23 -22 24 -24 4 -14 -12 7 -26 10 -31 7 -5 -3 -7 8 -6 24
1 17 -1 33 -6 36 -12 7 -11 24 2 24 5 0 7 -4 4 -10z m59 -6 c3 -8 2 -12 -4 -9
-6 3 -10 10 -10 16 0 14 7 11 14 -7z m-17 -39 c0 -8 -4 -12 -9 -9 -5 3 -6 10
-3 15 9 13 12 11 12 -6z m-1 -107 c10 -13 12 -17 4 -10 -21 19 -32 14 -20 -8
6 -11 8 -25 5 -30 -3 -6 -2 -10 4 -10 5 0 9 -9 8 -20 -2 -24 -2 -24 -27 -8
-18 12 -18 13 -2 31 15 17 15 20 1 30 -13 9 -14 16 -5 30 13 21 9 21 32 -5z
m20 -107 c-4 -5 -1 -11 5 -13 7 -2 7 -8 -3 -15 -9 -8 -19 -9 -28 -3 -13 8 -12
12 5 24 23 18 28 19 21 7z m4455 -14 c-10 -9 -11 -8 -5 6 3 10 9 15 12 12 3
-3 0 -11 -7 -18z m-4431 -107 c0 -5 -2 -10 -4 -10 -3 0 -8 5 -11 10 -3 6 -1
10 4 10 6 0 11 -4 11 -10z m4439 -6 c4 3 7 -5 6 -16 -3 -35 -22 -31 -22 4 0
18 2 27 5 20 2 -6 7 -10 11 -8z m-4363 -277 c-2 -13 -6 -29 -10 -35 -4 -7 -3
-12 3 -12 5 0 12 6 14 13 4 7 6 8 6 1 2 -23 -23 -31 -41 -13 -15 16 -15 19 5
43 25 32 26 32 23 3z m38 -83 c3 -8 2 -12 -4 -9 -6 3 -10 10 -10 16 0 14 7 11
14 -7z m4246 12 c0 -2 -7 -7 -16 -10 -8 -3 -12 -2 -9 4 6 10 25 14 25 6z m-3
-23 c-4 -3 -2 -12 4 -19 6 -8 6 -14 0 -18 -5 -4 -13 -2 -16 4 -8 12 1 40 11
40 4 0 4 -3 1 -7z m3 -125 c0 -4 -4 -10 -10 -13 -5 -3 -10 -1 -10 5 0 6 -5 8
-10 5 -6 -4 -9 -1 -8 7 2 7 -3 12 -10 10 -8 -1 -11 2 -8 7 6 10 56 -9 56 -21z
m-4212 -75 c-10 -2 -18 -9 -18 -15 0 -6 -3 -9 -6 -5 -10 10 6 27 24 26 15 -1
15 -2 0 -6z m4230 -48 c-3 -3 -9 2 -12 12 -6 14 -5 15 5 6 7 -7 10 -15 7 -18z
m-4264 -1 c3 -8 2 -12 -4 -9 -6 3 -10 10 -10 16 0 14 7 11 14 -7z m4293 -36
c-3 -8 -6 -5 -6 6 -1 11 2 17 5 13 3 -3 4 -12 1 -19z m59 -70 c9 -18 13 -29 8
-25 -4 4 -14 -3 -21 -15 l-13 -23 3 25 c1 18 -2 24 -13 22 -13 -2 -12 0 1 10
9 7 14 19 12 26 -9 25 7 11 23 -20z m-4393 -38 c-3 -12 -8 -19 -11 -16 -5 6 5
36 12 36 2 0 2 -9 -1 -20z m0 -45 c-3 -9 -8 -14 -10 -11 -3 3 -2 9 2 15 9 16
15 13 8 -4z m4381 -23 c2 -4 -5 -9 -17 -9 -17 -2 -19 0 -7 7 18 12 18 12 24 2z
m-4419 -22 c3 -5 1 -10 -4 -10 -6 0 -11 5 -11 10 0 6 2 10 4 10 3 0 8 -4 11
-10z m4485 -122 c0 -4 -4 -8 -9 -8 -6 0 -12 4 -15 8 -3 5 1 9 9 9 8 0 15 -4
15 -9z m-27 -33 c-3 -9 -8 -14 -10 -11 -3 3 -2 9 2 15 9 16 15 13 8 -4z m7
-65 c0 -5 -2 -10 -4 -10 -3 0 -8 5 -11 10 -3 6 -1 10 4 10 6 0 11 -4 11 -10z
m30 0 c0 -5 -5 -10 -11 -10 -5 0 -7 5 -4 10 3 6 8 10 11 10 2 0 4 -4 4 -10z
m46 -127 c2 -14 -3 -23 -16 -26 -13 -3 -18 -1 -13 6 4 6 0 8 -9 5 -8 -4 -15
-1 -15 7 0 10 7 11 26 4 l26 -9 -24 20 -24 20 23 -3 c14 -2 25 -12 26 -24z
m-4596 -33 c0 -5 -2 -10 -4 -10 -3 0 -8 5 -11 10 -3 6 -1 10 4 10 6 0 11 -4
11 -10z m4611 -107 c16 -19 17 -23 4 -12 -11 9 -28 15 -37 14 -10 -2 -21 2
-25 7 -3 6 -1 8 5 4 6 -3 13 -2 17 4 8 14 8 14 36 -17z m-4631 -74 c0 8 2 12
5 9 3 -3 2 -13 -1 -22 -5 -14 -9 -15 -15 -4 -5 7 -9 18 -9 23 0 6 5 3 10 -5 8
-12 10 -12 10 -1z m4580 -19 c0 -5 -2 -10 -4 -10 -3 0 -8 5 -11 10 -3 6 -1 10
4 10 6 0 11 -4 11 -10z m30 -43 c0 5 7 10 16 10 15 0 15 -2 2 -11 -13 -10 -13
-13 -1 -25 8 -7 11 -16 8 -19 -4 -4 -11 1 -16 11 -6 9 -15 14 -21 11 -7 -4 -8
-2 -4 4 4 7 2 12 -3 12 -6 0 -11 5 -11 11 0 8 5 8 15 -1 8 -7 15 -8 15 -3z
m-4596 -13 c3 -8 2 -12 -4 -9 -6 3 -10 10 -10 16 0 14 7 11 14 -7z m4561 -104
c3 -5 1 -10 -4 -10 -6 0 -11 5 -11 10 0 6 2 10 4 10 3 0 8 -4 11 -10z m-4540
-40 c3 -5 1 -10 -4 -10 -6 0 -11 5 -11 10 0 6 2 10 4 10 3 0 8 -4 11 -10z
m4536 -23 c-10 -9 -11 -8 -5 6 3 10 9 15 12 12 3 -3 0 -11 -7 -18z m-4537 -23
c3 -8 2 -12 -4 -9 -6 3 -10 10 -10 16 0 14 7 11 14 -7z m4560 -35 c-3 -5 -10
-7 -15 -3 -5 3 -7 10 -3 15 3 5 10 7 15 3 5 -3 7 -10 3 -15z m-30 -17 c3 -5
-1 -9 -9 -9 -8 0 -12 4 -9 9 3 4 7 8 9 8 2 0 6 -4 9 -8z m-4524 -82 c0 -5 -5
-10 -11 -10 -5 0 -7 5 -4 10 3 6 8 10 11 10 2 0 4 -4 4 -10z m15 -80 c3 -5 1
-10 -4 -10 -6 0 -11 5 -11 10 0 6 2 10 4 10 3 0 8 -4 11 -10z m4525 -25 c24
-13 24 -14 3 -12 -13 1 -23 5 -23 10 0 4 -4 5 -10 2 -5 -3 -10 -1 -10 4 0 14
10 13 40 -4z m-49 -62 c-12 -20 -14 -14 -5 12 4 9 9 14 11 11 3 -2 0 -13 -6
-23z m-4447 9 c3 -5 -1 -9 -9 -9 -8 0 -12 4 -9 9 3 4 7 8 9 8 2 0 6 -4 9 -8z
m4436 -52 c0 -5 -5 -10 -11 -10 -5 0 -7 5 -4 10 3 6 8 10 11 10 2 0 4 -4 4
-10z m-4365 -170 c3 -5 1 -10 -4 -10 -6 0 -11 5 -11 10 0 6 2 10 4 10 3 0 8
-4 11 -10z m4347 -4 c9 5 9 3 -1 -10 -13 -15 -15 -16 -23 -1 -5 8 -14 12 -20
9 -7 -4 -8 -2 -4 5 6 9 11 9 21 1 8 -7 20 -8 27 -4z m-4361 -39 c-10 -9 -11
-8 -5 6 3 10 9 15 12 12 3 -3 0 -11 -7 -18z m4349 -31 c0 4 2 5 5 2 3 -3 3
-13 -1 -22 -6 -15 -8 -14 -24 4 -9 11 -21 16 -25 12 -5 -4 -5 -1 -1 6 5 9 12
9 27 2 10 -6 19 -8 19 -4z m-4310 -46 c0 -5 -5 -10 -11 -10 -5 0 -7 5 -4 10 3
6 8 10 11 10 2 0 4 -4 4 -10z m-15 -30 c4 -6 10 -8 15 -5 5 3 12 0 16 -6 4 -8
3 -9 -4 -5 -7 4 -12 1 -13 -6 0 -10 -2 -10 -6 0 -2 6 -9 10 -14 6 -12 -7 -31
5 -24 17 8 12 22 12 30 -1z m5 -72 c0 -6 -6 -5 -15 2 -8 7 -15 14 -15 16 0 2
7 1 15 -2 8 -4 15 -11 15 -16z m4207 -21 c11 -12 14 -45 4 -52 -5 -3 -13 0
-17 6 -4 8 -3 9 4 5 8 -5 11 0 9 16 -2 13 -9 23 -15 23 -6 0 -13 3 -17 7 -4 3
0 5 9 4 8 -1 19 -5 23 -9z m-4157 -43 c0 -8 -4 -12 -10 -9 -5 3 -10 10 -10 16
0 5 5 9 10 9 6 0 10 -7 10 -16z m4115 6 c3 -5 1 -10 -4 -10 -6 0 -11 5 -11 10
0 6 2 10 4 10 3 0 8 -4 11 -10z m-4055 -95 c0 -7 6 -15 13 -18 6 -2 0 -4 -15
-3 -14 0 -24 3 -22 5 2 2 0 9 -6 15 -6 8 -3 12 11 13 10 1 19 -4 19 -12z m117
-140 c0 -8 -4 -12 -9 -9 -5 3 -6 10 -3 15 9 13 12 11 12 -6z m-30 -2 c-4 -3 1
-12 11 -20 16 -12 16 -13 -1 -7 -13 5 -16 2 -11 -12 6 -18 6 -18 -11 -2 -15
14 -16 20 -5 32 7 9 15 16 18 16 3 0 2 -3 -1 -7z m3808 -83 c-3 -5 -14 -10
-23 -9 -14 0 -13 2 3 9 27 11 27 11 20 0z m30 -40 c-2 -8 -4 -21 -4 -27 -1 -7
-6 -13 -12 -13 -6 0 -9 6 -6 13 2 6 -1 19 -9 27 -11 13 -9 15 10 15 16 0 22
-5 21 -15z m-3725 -59 c0 -6 10 -8 21 -6 12 3 19 1 15 -2 -12 -13 -35 -11 -47
3 -8 10 -8 14 0 14 6 0 11 -4 11 -9z m95 -61 c3 -5 1 -10 -4 -10 -6 0 -11 5
-11 10 0 6 2 10 4 10 3 0 8 -4 11 -10z m60 -90 c3 -5 1 -10 -4 -10 -6 0 -11 5
-11 10 0 6 2 10 4 10 3 0 8 -4 11 -10z m19 -24 c-7 -19 -20 -21 -30 -4 -4 7
-3 8 5 4 6 -4 14 0 17 9 4 9 8 14 10 12 3 -2 2 -12 -2 -21z m3297 1 c-10 -9
-11 -8 -5 6 3 10 9 15 12 12 3 -3 0 -11 -7 -18z m-3271 -21 c0 -2 -6 -15 -14
-30 -13 -26 -13 -26 -31 -6 -10 11 -15 21 -12 21 4 1 11 2 16 3 5 0 13 4 17 9
8 7 24 10 24 3z m3233 -21 c-7 -21 -12 -19 -10 4 0 11 5 18 9 15 4 -3 5 -11 1
-19z m25 -12 c-6 -8 -14 -11 -17 -7 -3 4 -1 9 6 11 7 2 9 12 6 21 -4 14 -3 15
5 2 8 -10 8 -18 0 -27z m-3108 -69 c0 -8 -19 -13 -24 -6 -3 5 1 9 9 9 8 0 15
-2 15 -3z m-30 -24 c13 -11 18 -20 12 -20 -6 0 -17 6 -24 13 -7 8 -20 12 -28
10 -13 -4 -13 -3 0 6 8 6 15 11 16 11 1 0 11 -9 24 -20z m3010 -2 c0 -4 -4 -8
-9 -8 -6 0 -12 4 -15 8 -3 5 1 9 9 9 8 0 15 -4 15 -9z m-2967 -45 c-6 -16 -25
-13 -31 5 -2 6 6 10 16 9 12 -1 18 -6 15 -14z m37 7 c0 -5 -2 -10 -4 -10 -3 0
-8 5 -11 10 -3 6 -1 10 4 10 6 0 11 -4 11 -10z m-9 -24 c5 3 9 -2 9 -12 0 -13
-3 -14 -15 -4 -8 7 -15 18 -14 24 0 7 2 6 6 -2 2 -6 9 -10 14 -6z m104 -56 c3
-5 1 -10 -4 -10 -6 0 -11 5 -11 10 0 6 2 10 4 10 3 0 8 -4 11 -10z m2565 -60
c0 -5 -5 -10 -11 -10 -5 0 -7 5 -4 10 3 6 8 10 11 10 2 0 4 -4 4 -10z m-83
-65 c4 -4 2 -5 -4 -1 -7 4 -13 2 -13 -3 0 -6 -4 -11 -8 -11 -5 0 -9 6 -9 14 0
15 21 16 34 1z m38 6 c3 -5 1 -12 -5 -16 -5 -3 -10 1 -10 9 0 18 6 21 15 7z
m-2284 -34 c-10 -9 -11 -8 -5 6 3 10 9 15 12 12 3 -3 0 -11 -7 -18z m2173 -5
c3 -5 -1 -9 -9 -9 -8 0 -12 4 -9 9 3 4 7 8 9 8 2 0 6 -4 9 -8z m-2060 -20 c3
-5 -1 -9 -9 -9 -8 0 -12 4 -9 9 3 4 7 8 9 8 2 0 6 -4 9 -8z m2081 -11 c3 -5 1
-12 -4 -15 -5 -3 -11 1 -15 9 -6 16 9 21 19 6z m-2027 -36 c-3 -3 -9 2 -12 12
-6 14 -5 15 5 6 7 -7 10 -15 7 -18z m62 -39 c0 -6 -5 -3 -11 7 -6 9 -15 14
-21 11 -7 -4 -8 -2 -4 5 9 14 36 -3 36 -23z m34 18 c3 -8 2 -12 -4 -9 -6 3
-10 10 -10 16 0 14 7 11 14 -7z m1633 -58 c0 -30 -3 -34 -17 -26 -10 5 -20 7
-24 5 -3 -3 -4 -2 -1 2 3 3 -1 13 -7 22 -9 11 -6 10 9 -2 16 -14 23 -15 29 -6
4 8 3 10 -4 5 -16 -9 -15 1 1 19 6 8 12 14 13 15 0 0 1 -16 1 -34z m-195 -38
c-8 -8 -9 -4 -5 13 4 13 8 18 11 10 2 -7 -1 -18 -6 -23z m94 20 c-10 -6 -22
-6 -26 -2 -5 5 3 10 18 11 22 1 24 0 8 -9z m-1356 -18 c0 7 3 11 6 8 8 -9 -15
-48 -28 -48 -9 0 -9 3 0 12 8 8 8 17 1 32 -10 20 -10 20 5 2 11 -13 16 -15 16
-6z m50 -20 c0 -15 -15 -19 -30 -9 -11 6 -12 9 -2 9 7 0 10 4 7 10 -3 6 1 7 9
4 9 -3 16 -10 16 -14z m1202 -10 c15 0 1 -13 -16 -16 -9 -1 -11 6 -7 25 3 18
6 21 9 9 2 -10 8 -18 14 -18z m-128 -11 c-3 -6 -12 -8 -19 -5 -7 2 -17 0 -22
-5 -6 -6 -10 -4 -10 5 0 9 8 13 24 10 17 -3 22 -1 17 7 -4 8 -3 9 5 5 6 -4 9
-12 5 -17z m-851 -1 c-4 -7 -6 -22 -5 -33 2 -19 2 -19 -9 -2 -8 13 -7 22 1 33
15 17 24 19 13 2z m64 -26 c0 -10 -7 -19 -14 -19 -16 0 -16 4 0 22 16 18 16
18 14 -3z m357 10 c3 -5 -1 -9 -9 -9 -8 0 -12 4 -9 9 3 4 7 8 9 8 2 0 6 -4 9
-8z m-403 -25 c-10 -9 -11 -8 -5 6 3 10 9 15 12 12 3 -3 0 -11 -7 -18z m369
-22 c-13 -15 -30 -12 -30 7 0 5 7 8 15 4 8 -3 15 0 15 6 0 6 3 8 6 5 4 -4 1
-13 -6 -22z m53 5 c3 -11 1 -18 -4 -14 -5 3 -9 12 -9 20 0 20 7 17 13 -6z
m-98 1 c3 -5 1 -12 -5 -16 -5 -3 -10 1 -10 9 0 18 6 21 15 7z"/>
<path d="M4055 5960 c-3 -5 -1 -10 4 -10 6 0 11 5 11 10 0 6 -2 10 -4 10 -3 0
-8 -4 -11 -10z"/>
<path d="M3500 5900 c-8 -5 -10 -10 -5 -10 6 0 17 5 25 10 8 5 11 10 5 10 -5
0 -17 -5 -25 -10z"/>
<path d="M6076 5865 c-3 -8 -1 -15 4 -15 6 0 10 7 10 15 0 8 -2 15 -4 15 -2 0
-6 -7 -10 -15z"/>
<path d="M1859 5781 c6 -10 7 -22 3 -26 -4 -5 -1 -5 6 -1 9 5 9 12 2 27 -6 10
-13 19 -16 19 -2 0 0 -8 5 -19z"/>
<path d="M1836 5715 c4 -8 10 -12 15 -9 11 6 2 24 -11 24 -5 0 -7 -7 -4 -15z"/>
<path d="M2953 5697 c0 -8 6 -14 14 -14 9 0 10 4 2 14 -6 7 -12 13 -14 13 -1
0 -2 -6 -2 -13z"/>
<path d="M1740 5525 c-8 -9 -8 -15 -2 -15 12 0 26 19 19 26 -2 2 -10 -2 -17
-11z"/>
<path d="M5475 6201 c-3 -5 -2 -12 3 -15 5 -3 9 1 9 9 0 17 -3 19 -12 6z"/>
<path d="M5589 6205 c-1 -3 -2 -14 -3 -24 0 -11 -4 -23 -8 -27 -12 -11 -9 -21
5 -21 10 0 14 13 13 39 -1 34 -4 47 -7 33z"/>
<path d="M2330 6180 c0 -5 5 -10 11 -10 5 0 7 5 4 10 -3 6 -8 10 -11 10 -2 0
-4 -4 -4 -10z"/>
<path d="M2419 6188 c-5 -18 -6 -38 -1 -34 7 8 12 36 6 36 -2 0 -4 -1 -5 -2z"/>
<path d="M2370 6176 c0 -2 7 -7 16 -10 8 -3 12 -2 9 4 -6 10 -25 14 -25 6z"/>
<path d="M2281 6154 c0 -11 3 -14 6 -6 3 7 2 16 -1 19 -3 4 -6 -2 -5 -13z"/>
<path d="M2330 6150 c0 -5 5 -10 11 -10 5 0 7 5 4 10 -3 6 -8 10 -11 10 -2 0
-4 -4 -4 -10z"/>
<path d="M2366 6152 c-2 -4 -1 -14 3 -20 6 -10 11 -9 21 3 11 13 10 14 -5 9
-13 -5 -16 -4 -11 4 4 7 5 12 2 12 -3 0 -7 -4 -10 -8z"/>
<path d="M5824 6140 c0 -13 4 -16 10 -10 7 7 7 13 0 20 -6 6 -10 3 -10 -10z"/>
<path d="M2313 6127 c1 -6 -6 -13 -17 -15 -13 -3 -16 0 -11 9 6 8 4 10 -5 4
-10 -6 -9 -11 5 -21 14 -11 20 -10 33 2 8 8 21 13 29 10 8 -3 12 -2 9 3 -9 13
-46 20 -43 8z"/>
<path d="M5896 6128 c3 -4 11 -5 19 -1 21 7 19 12 -4 10 -11 0 -18 -5 -15 -9z"/>
<path d="M5871 6114 c0 -11 3 -14 6 -6 3 7 2 16 -1 19 -3 4 -6 -2 -5 -13z"/>
<path d="M2636 6062 c-3 -5 1 -9 9 -9 8 0 12 4 9 9 -3 4 -7 8 -9 8 -2 0 -6 -4
-9 -8z"/>
<path d="M5365 6035 c0 -13 3 -21 8 -18 4 2 7 10 7 18 0 8 -3 16 -7 18 -5 3
-8 -5 -8 -18z"/>
<path d="M5897 6037 c-3 -8 3 -14 15 -14 16 -2 17 1 8 13 -15 17 -17 17 -23 1z"/>
<path d="M4390 6026 c0 -2 7 -7 16 -10 8 -3 12 -2 9 4 -6 10 -25 14 -25 6z"/>
<path d="M5334 6016 c1 -8 5 -18 8 -22 4 -3 5 1 4 10 -1 8 -5 18 -8 22 -4 3
-5 -1 -4 -10z"/>
<path d="M6070 6021 c0 -5 8 -15 18 -22 15 -12 16 -12 5 2 -7 9 -10 19 -6 22
3 4 1 7 -5 7 -7 0 -12 -4 -12 -9z"/>
<path d="M4095 6011 c-3 -6 5 -15 17 -21 21 -10 21 -10 6 3 -10 8 -15 17 -11
20 3 4 4 7 0 7 -3 0 -8 -4 -12 -9z"/>
<path d="M1960 5995 c-7 -9 -11 -17 -9 -20 3 -2 10 5 17 15 14 24 10 26 -8 5z"/>
<path d="M2690 5995 c-7 -8 -9 -15 -4 -15 5 0 2 -5 -6 -11 -13 -9 -13 -10 0
-6 8 2 15 8 15 13 0 5 4 15 8 22 11 17 2 15 -13 -3z"/>
<path d="M3490 5999 c0 -5 5 -7 10 -4 6 3 10 8 10 11 0 2 -4 4 -10 4 -5 0 -10
-5 -10 -11z"/>
<path d="M4286 5993 c-6 -14 -5 -15 5 -6 7 7 10 15 7 18 -3 3 -9 -2 -12 -12z"/>
<path d="M4318 6003 c7 -3 16 -2 19 1 4 3 -2 6 -13 5 -11 0 -14 -3 -6 -6z"/>
<path d="M4177 5993 c-4 -3 -2 -12 4 -19 7 -8 7 -14 -1 -19 -5 -3 -10 -2 -10
3 0 6 -8 13 -17 16 -15 6 -15 4 2 -14 14 -15 21 -17 31 -9 8 6 21 9 29 5 9 -3
15 0 15 9 0 8 5 15 10 15 6 0 10 -8 10 -17 0 -15 2 -16 10 -3 15 23 12 26 -19
26 -17 0 -27 -4 -24 -9 3 -5 -3 -7 -13 -5 -11 2 -18 10 -16 16 2 13 -1 15 -11
5z"/>
<path d="M5356 5985 c-3 -9 0 -15 9 -15 9 0 12 6 9 15 -4 8 -7 15 -9 15 -2 0
-5 -7 -9 -15z"/>
<path d="M3933 5973 c-3 -10 -8 -21 -10 -25 -2 -4 2 -5 9 -3 8 3 14 14 15 25
2 25 -6 26 -14 3z"/>
<path d="M4355 5981 c-3 -5 -2 -12 3 -15 5 -3 9 1 9 9 0 17 -3 19 -12 6z"/>
<path d="M6059 5981 c11 -7 11 -9 0 -14 -8 -3 -4 -4 8 -4 17 1 19 4 11 14 -6
7 -16 13 -22 13 -6 0 -5 -4 3 -9z"/>
<path d="M1965 5964 c-5 -10 -9 -23 -9 -27 -1 -4 -8 -12 -16 -17 -9 -6 -10
-10 -3 -10 6 0 15 5 18 10 3 6 11 10 16 10 6 0 8 -4 4 -9 -3 -6 4 -9 14 -8 20
1 50 52 37 64 -3 3 -6 -1 -6 -10 0 -20 -20 -18 -36 2 -9 11 -12 11 -19 -5z
m39 -19 c3 3 1 -1 -5 -8 -9 -9 -12 -9 -16 1 -3 6 -10 9 -15 6 -7 -4 -8 -2 -4
5 6 8 12 9 20 2 7 -6 16 -9 20 -6z"/>
<path d="M4546 5962 c-3 -5 1 -9 9 -9 8 0 15 4 15 9 0 4 -4 8 -9 8 -6 0 -12
-4 -15 -8z"/>
<path d="M6110 5959 c0 -5 5 -7 10 -4 6 3 10 8 10 11 0 2 -4 4 -10 4 -5 0 -10
-5 -10 -11z"/>
<path d="M3586 5945 c-17 -13 -18 -17 -6 -28 8 -6 11 -8 7 -3 -4 5 0 18 10 28
19 22 15 23 -11 3z"/>
<path d="M3816 5938 c3 -5 10 -6 15 -3 13 9 11 12 -6 12 -8 0 -12 -4 -9 -9z"/>
<path d="M1875 5930 c-3 -6 1 -7 9 -4 18 7 21 14 7 14 -6 0 -13 -4 -16 -10z"/>
<path d="M2766 5922 c-2 -4 4 -8 14 -8 10 0 16 4 14 8 -3 4 -9 8 -14 8 -5 0
-11 -4 -14 -8z"/>
<path d="M4660 5920 c-9 -6 -10 -10 -3 -10 6 0 15 5 18 10 8 12 4 12 -15 0z"/>
<path d="M5230 5921 c0 -6 4 -13 10 -16 6 -3 7 1 4 9 -7 18 -14 21 -14 7z"/>
<path d="M4475 5910 c3 -5 11 -10 16 -10 6 0 7 5 4 10 -3 6 -11 10 -16 10 -6
0 -7 -4 -4 -10z"/>
<path d="M6170 5900 c-9 -6 -10 -10 -3 -10 6 0 15 5 18 10 8 12 4 12 -15 0z"/>
<path d="M2715 5880 c3 -5 14 -10 23 -10 15 0 15 2 2 10 -20 13 -33 13 -25 0z"/>
<path d="M4770 5880 c0 -5 5 -10 11 -10 5 0 7 5 4 10 -3 6 -8 10 -11 10 -2 0
-4 -4 -4 -10z"/>
<path d="M5243 5883 c4 -3 1 -13 -6 -22 -11 -14 -10 -14 5 -2 16 12 16 31 1
31 -4 0 -3 -3 0 -7z"/>
<path d="M3257 5864 c-3 -4 -2 -14 3 -24 5 -10 6 -21 2 -25 -4 -5 -1 -5 6 -1
8 5 9 13 2 26 -8 14 -6 20 8 23 14 4 14 5 1 6 -9 0 -19 -2 -22 -5z"/>
<path d="M4867 5859 c7 -7 15 -10 18 -7 3 3 -2 9 -12 12 -14 6 -15 5 -6 -5z"/>
<path d="M3176 5852 c-2 -4 -1 -14 4 -22 7 -11 9 -9 7 8 -1 24 -3 26 -11 14z"/>
<path d="M1796 5842 c-3 -5 1 -9 9 -9 8 0 12 4 9 9 -3 4 -7 8 -9 8 -2 0 -6 -4
-9 -8z"/>
<path d="M2827 5837 c-3 -8 1 -14 8 -14 7 0 11 6 8 14 -3 7 -6 13 -8 13 -2 0
-5 -6 -8 -13z"/>
<path d="M6256 5833 c-6 -14 -5 -15 5 -6 7 7 10 15 7 18 -3 3 -9 -2 -12 -12z"/>
<path d="M4949 5818 c-10 -32 2 -61 15 -39 4 5 1 13 -5 17 -8 4 -7 9 2 15 10
6 11 9 2 9 -7 0 -13 -1 -14 -2z"/>
<path d="M3050 5801 c0 -6 4 -13 10 -16 6 -3 7 1 4 9 -7 18 -14 21 -14 7z"/>
<path d="M3097 5799 c7 -7 15 -10 18 -7 3 3 -2 9 -12 12 -14 6 -15 5 -6 -5z"/>
<path d="M4990 5801 c0 -6 4 -13 10 -16 6 -3 7 1 4 9 -7 18 -14 21 -14 7z"/>
<path d="M5090 5800 c-9 -6 -10 -10 -3 -10 6 0 15 5 18 10 8 12 4 12 -15 0z"/>
<path d="M2897 5773 c-10 -9 -9 -23 1 -23 5 0 9 7 9 15 0 17 -1 18 -10 8z"/>
<path d="M5060 5760 c0 -6 7 -13 15 -16 8 -4 13 -10 10 -14 -3 -5 0 -12 7 -16
7 -4 10 -4 6 1 -4 4 -2 15 5 23 8 11 8 14 0 9 -6 -4 -19 0 -27 9 -9 8 -16 10
-16 4z"/>
<path d="M6246 5762 c-3 -5 1 -9 9 -9 8 0 12 4 9 9 -3 4 -7 8 -9 8 -2 0 -6 -4
-9 -8z"/>
<path d="M6238 5733 c7 -3 16 -2 19 1 4 3 -2 6 -13 5 -11 0 -14 -3 -6 -6z"/>
<path d="M6286 5702 c-3 -5 1 -9 9 -9 8 0 12 4 9 9 -3 4 -7 8 -9 8 -2 0 -6 -4
-9 -8z"/>
<path d="M6225 5689 c-4 -6 -4 -13 -1 -16 3 -4 6 -1 6 6 0 7 5 9 10 6 6 -3 10
-1 10 4 0 14 -17 14 -25 0z"/>
<path d="M6261 5674 c0 -11 3 -14 6 -6 3 7 2 16 -1 19 -3 4 -6 -2 -5 -13z"/>
<path d="M6275 5650 c-4 -6 -11 -8 -16 -5 -5 4 -9 0 -9 -8 0 -7 7 -14 15 -14
8 0 13 3 10 5 -3 3 0 11 6 19 6 7 9 13 6 13 -3 0 -9 -5 -12 -10z"/>
<path d="M6333 5637 c-4 -6 -1 -7 7 -2 10 6 12 4 7 -8 -9 -23 0 -22 12 1 8 14
6 19 -5 19 -8 0 -18 -5 -21 -10z"/>
<path d="M1696 5615 c-8 -22 3 -40 16 -27 7 7 7 16 1 27 -9 16 -10 16 -17 0z"/>
<path d="M6327 5599 c7 -7 15 -10 18 -7 3 3 -2 9 -12 12 -14 6 -15 5 -6 -5z"/>
<path d="M6314 5565 c3 -9 0 -15 -9 -15 -23 0 -25 -16 -1 -18 16 -1 22 4 24
23 1 14 -3 25 -9 25 -6 0 -9 -7 -5 -15z"/>
<path d="M6326 5452 c-2 -4 0 -14 6 -22 8 -12 9 -12 5 2 -3 9 -1 19 6 22 9 3
9 5 0 5 -6 1 -14 -3 -17 -7z"/>
<path d="M6358 5437 c-3 -19 -2 -25 4 -19 6 6 8 18 6 28 -3 14 -5 12 -10 -9z"/>
<path d="M1656 5442 c-3 -5 1 -9 9 -9 8 0 12 4 9 9 -3 4 -7 8 -9 8 -2 0 -6 -4
-9 -8z"/>
<path d="M6285 5409 c-4 -6 -5 -12 -2 -15 2 -3 7 2 10 11 7 17 1 20 -8 4z"/>
<path d="M1695 5371 c-3 -5 0 -13 6 -17 8 -4 7 -9 -2 -15 -10 -6 -10 -9 -2 -9
16 0 26 17 13 25 -6 4 -8 11 -5 16 4 5 4 9 1 9 -3 0 -7 -4 -11 -9z"/>
<path d="M6320 5360 c0 -5 5 -10 11 -10 5 0 7 5 4 10 -3 6 -8 10 -11 10 -2 0
-4 -4 -4 -10z"/>
<path d="M6335 5330 c3 -5 8 -10 11 -10 2 0 4 5 4 10 0 6 -5 10 -11 10 -5 0
-7 -4 -4 -10z"/>
<path d="M6283 5222 c-9 -6 -8 -11 5 -19 15 -9 18 -7 19 8 2 20 -5 23 -24 11z"/>
<path d="M1705 5180 c-3 -6 1 -7 9 -4 18 7 21 14 7 14 -6 0 -13 -4 -16 -10z"/>
<path d="M6265 5120 c3 -5 8 -10 11 -10 2 0 4 5 4 10 0 6 -5 10 -11 10 -5 0
-7 -4 -4 -10z"/>
<path d="M1749 5083 c-12 -16 -12 -17 1 -6 13 10 18 8 28 -8 11 -18 10 -19
-13 -15 -13 3 -28 -1 -31 -7 -4 -7 -4 -9 0 -5 5 4 20 2 34 -3 36 -14 44 1 18
34 -21 27 -23 27 -37 10z"/>
<path d="M1760 4961 c5 -11 15 -23 21 -27 6 -3 3 5 -6 20 -20 30 -30 35 -15 7z"/>
<path d="M1800 4965 c-10 -12 -10 -15 2 -15 8 0 15 7 15 15 0 8 -1 15 -2 15
-2 0 -8 -7 -15 -15z"/>
<path d="M6256 4961 c-3 -5 1 -11 9 -14 9 -4 12 -1 8 9 -6 16 -10 17 -17 5z"/>
<path d="M1802 4874 c-7 -8 -8 -14 -3 -14 10 0 25 19 20 25 -2 1 -10 -3 -17
-11z"/>
<path d="M6205 4780 c-4 -6 -11 -7 -17 -4 -7 4 -8 2 -4 -5 6 -9 11 -9 22 0 14
11 18 19 10 19 -3 0 -8 -5 -11 -10z"/>
<path d="M6215 4740 c-3 -5 -1 -10 4 -10 6 0 11 5 11 10 0 6 -2 10 -4 10 -3 0
-8 -4 -11 -10z"/>
<path d="M1916 4668 c3 -5 10 -6 15 -3 13 9 11 12 -6 12 -8 0 -12 -4 -9 -9z"/>
<path d="M6202 4645 c4 -4 3 -14 -2 -20 -18 -22 12 -34 33 -13 19 20 9 25 -12
6 -11 -11 -13 -10 -8 4 3 10 1 20 -6 24 -7 4 -9 4 -5 -1z"/>
<path d="M6309 4603 c-13 -16 -12 -17 4 -4 9 7 17 15 17 17 0 8 -8 3 -21 -13z"/>
<path d="M6250 4556 c0 -8 4 -17 9 -20 5 -4 7 3 4 14 -6 23 -13 26 -13 6z"/>
<path d="M6225 4499 c-12 -18 5 -29 25 -16 11 6 20 14 20 17 0 10 -39 9 -45
-1z"/>
<path d="M6302 4501 c2 -19 -4 -24 -12 -11 -8 13 -10 13 -10 -1 0 -9 8 -20 17
-23 10 -4 14 -4 10 0 -4 4 0 15 8 24 13 14 13 17 1 17 -8 0 -15 -3 -14 -6z"/>
<path d="M6249 4468 c-7 -23 -3 -45 8 -41 7 3 10 9 7 14 -3 5 3 9 13 9 15 0
16 2 3 10 -14 9 -29 13 -31 8z"/>
<path d="M1794 4400 c0 -13 4 -16 10 -10 7 7 7 13 0 20 -6 6 -10 3 -10 -10z"/>
<path d="M6295 4391 c-3 -5 -2 -12 3 -15 5 -3 9 1 9 9 0 17 -3 19 -12 6z"/>
<path d="M1803 4354 c-15 -16 -16 -24 -4 -24 8 0 24 30 19 35 -2 2 -9 -3 -15
-11z"/>
<path d="M1759 4278 c-5 -18 -6 -38 -1 -34 7 8 12 36 6 36 -2 0 -4 -1 -5 -2z"/>
<path d="M1730 4245 c0 -5 5 -17 10 -25 5 -8 10 -10 10 -5 0 6 -5 17 -10 25
-5 8 -10 11 -10 5z"/>
<path d="M1791 4216 c-6 -7 -8 -16 -4 -19 3 -4 1 -7 -5 -7 -6 0 -11 -10 -10
-22 1 -39 -2 -49 -12 -43 -5 3 -10 1 -10 -5 0 -7 6 -10 14 -7 24 9 27 -5 4
-24 -11 -11 -16 -19 -9 -19 7 0 9 -5 6 -10 -4 -6 -11 -7 -17 -4 -7 5 -8 2 -3
-5 5 -9 13 -7 31 10 13 12 21 25 19 30 -3 4 -1 11 5 14 8 5 7 11 -1 21 -8 10
-8 18 0 27 8 10 7 17 -1 25 -8 8 -9 12 -1 12 14 0 25 28 14 35 -5 2 -14 -1
-20 -9z m4 -45 c3 -5 2 -12 -3 -15 -5 -3 -9 1 -9 9 0 17 3 19 12 6z"/>
<path d="M6310 4210 c0 -4 7 -11 16 -14 9 -3 12 -11 8 -18 -4 -7 -4 -10 1 -6
4 4 14 3 22 -3 7 -6 13 -8 13 -4 0 4 -8 14 -17 21 -17 13 -17 14 0 8 9 -3 17
-1 17 5 0 6 -3 10 -7 10 -5 -1 -10 0 -13 1 -18 7 -40 7 -40 0z"/>
<path d="M1710 4180 c0 -5 5 -10 11 -10 5 0 7 5 4 10 -3 6 -8 10 -11 10 -2 0
-4 -4 -4 -10z"/>
<path d="M6380 4179 c0 -5 5 -7 10 -4 6 3 10 8 10 11 0 2 -4 4 -10 4 -5 0 -10
-5 -10 -11z"/>
<path d="M6430 4160 c0 -5 5 -10 10 -10 6 0 10 5 10 10 0 6 -4 10 -10 10 -5 0
-10 -4 -10 -10z"/>
<path d="M6453 4115 c0 -8 4 -12 9 -9 4 3 8 9 8 15 0 5 -4 9 -8 9 -5 0 -9 -7
-9 -15z"/>
<path d="M1716 4061 c-3 -5 2 -15 12 -22 15 -12 16 -12 5 2 -7 9 -10 19 -6 22
3 4 4 7 0 7 -3 0 -8 -4 -11 -9z"/>
<path d="M6394 4055 c12 -9 13 -15 3 -25 -10 -12 -9 -12 6 -1 23 18 22 37 -4
37 -17 0 -18 -2 -5 -11z"/>
<path d="M1763 4033 c-7 -2 -13 -9 -13 -14 0 -6 5 -7 11 -3 8 4 9 -1 4 -17 -7
-21 -6 -22 9 -10 11 9 13 17 6 26 -5 6 -7 15 -3 18 7 8 4 8 -14 0z"/>
<path d="M6365 4020 c3 -5 8 -10 11 -10 2 0 4 5 4 10 0 6 -5 10 -11 10 -5 0
-7 -4 -4 -10z"/>
<path d="M6415 4020 c-3 -5 -1 -10 4 -10 6 0 11 5 11 10 0 6 -2 10 -4 10 -3 0
-8 -4 -11 -10z"/>
<path d="M6495 4020 c3 -5 8 -10 11 -10 2 0 4 5 4 10 0 6 -5 10 -11 10 -5 0
-7 -4 -4 -10z"/>
<path d="M6480 3992 c0 -6 -8 -9 -17 -6 -15 5 -16 4 -3 -5 16 -11 40 3 27 16
-4 3 -7 1 -7 -5z"/>
<path d="M6408 3983 c7 -3 16 -2 19 1 4 3 -2 6 -13 5 -11 0 -14 -3 -6 -6z"/>
<path d="M6354 3963 c3 -19 16 -28 16 -10 0 8 6 17 13 20 6 3 2 5 -9 4 -12 -1
-21 -7 -20 -14z"/>
<path d="M6546 3962 c-3 -5 1 -9 9 -9 8 0 15 4 15 9 0 4 -4 8 -9 8 -6 0 -12
-4 -15 -8z"/>
<path d="M6455 3901 c-3 -5 -2 -12 3 -15 5 -3 9 1 9 9 0 17 -3 19 -12 6z"/>
<path d="M6540 3900 c-12 -7 -10 -9 7 -7 12 0 19 5 17 9 -6 10 -6 10 -24 -2z"/>
<path d="M6433 3870 c-1 -11 2 -22 6 -24 4 -3 7 4 6 14 -2 27 -10 33 -12 10z"/>
<path d="M6410 3820 c-9 -6 -10 -10 -3 -10 6 0 15 5 18 10 8 12 4 12 -15 0z"/>
<path d="M1713 3805 c0 -8 4 -15 9 -15 4 0 8 7 8 15 0 8 -4 15 -8 15 -5 0 -9
-7 -9 -15z"/>
<path d="M1734 3758 c1 -13 6 -22 9 -20 4 1 10 2 13 2 4 0 1 6 -5 13 -6 8 -8
17 -4 20 3 4 1 7 -5 7 -7 0 -10 -10 -8 -22z"/>
<path d="M6425 3760 c10 -11 20 -20 23 -20 3 0 -3 9 -13 20 -10 11 -20 20 -23
20 -3 0 3 -9 13 -20z"/>
<path d="M1674 3736 c1 -8 5 -18 8 -22 4 -3 5 1 4 10 -1 8 -5 18 -8 22 -4 3
-5 -1 -4 -10z"/>
<path d="M6506 3682 c-3 -5 1 -9 9 -9 8 0 12 4 9 9 -3 4 -7 8 -9 8 -2 0 -6 -4
-9 -8z"/>
<path d="M6370 3675 c0 -7 30 -13 34 -7 3 4 -4 9 -15 9 -10 1 -19 0 -19 -2z"/>
<path d="M6416 3661 c-3 -4 3 -16 13 -25 14 -13 18 -14 18 -2 0 8 -5 14 -11
13 -6 -1 -10 4 -8 11 2 14 -4 16 -12 3z"/>
<path d="M1714 3599 c0 -10 4 -16 7 -13 4 2 10 0 14 -6 3 -5 0 -10 -7 -10 -8
0 -9 -3 -3 -8 13 -9 18 -32 7 -32 -4 0 -14 6 -22 13 -12 10 -12 9 -1 -5 7 -9
10 -21 7 -26 -3 -5 1 -9 9 -9 8 0 13 3 10 5 -3 3 0 11 6 19 6 7 8 13 4 13 -4
0 -2 6 4 14 9 10 8 16 -4 26 -10 8 -12 17 -6 24 7 8 5 12 -7 12 -10 0 -18 -8
-18 -17z"/>
<path d="M6431 3594 c0 -11 3 -14 6 -6 3 7 2 16 -1 19 -3 4 -6 -2 -5 -13z"/>
<path d="M6384 3492 c-6 -4 -10 -16 -8 -27 2 -10 -3 -26 -9 -34 -8 -10 -1 -8
21 5 18 10 28 20 22 22 -5 2 -7 9 -4 14 4 7 2 8 -4 4 -7 -4 -12 -3 -12 3 0 5
6 12 13 14 6 3 8 6 2 6 -5 0 -15 -3 -21 -7z"/>
<path d="M6410 3436 c0 -2 7 -7 16 -10 8 -3 12 -2 9 4 -6 10 -25 14 -25 6z"/>
<path d="M6419 3353 c-13 -16 -12 -17 4 -4 9 7 17 15 17 17 0 8 -8 3 -21 -13z"/>
<path d="M1695 3310 c-3 -6 1 -7 9 -4 18 7 21 14 7 14 -6 0 -13 -4 -16 -10z"/>
<path d="M1760 3285 c-7 -8 -16 -12 -21 -9 -5 3 -9 0 -9 -6 0 -7 7 -10 15 -7
8 4 17 2 20 -3 3 -5 -3 -11 -12 -13 -10 -3 -6 -4 9 -4 24 1 26 3 13 17 -11 13
-12 19 -3 28 7 7 9 12 6 12 -3 0 -11 -7 -18 -15z"/>
<path d="M6367 3293 c-14 -13 -6 -21 26 -25 22 -2 34 1 34 9 0 8 -10 10 -30 6
-21 -4 -28 -3 -23 5 8 13 3 16 -7 5z"/>
<path d="M1720 3226 c0 -2 8 -10 18 -17 15 -13 16 -12 3 4 -13 16 -21 21 -21
13z"/>
<path d="M1736 3182 c-3 -5 1 -9 9 -9 8 0 12 4 9 9 -3 4 -7 8 -9 8 -2 0 -6 -4
-9 -8z"/>
<path d="M1757 3129 c7 -7 15 -10 18 -7 3 3 -2 9 -12 12 -14 6 -15 5 -6 -5z"/>
<path d="M1790 3110 c0 -5 5 -10 11 -10 5 0 7 5 4 10 -3 6 -8 10 -11 10 -2 0
-4 -4 -4 -10z"/>
<path d="M6320 3101 c-14 -26 -13 -31 6 -31 11 0 14 6 9 21 -5 16 -4 19 5 14
9 -5 11 -4 6 3 -10 16 -14 15 -26 -7z"/>
<path d="M1735 3100 c3 -5 8 -10 11 -10 2 0 4 5 4 10 0 6 -5 10 -11 10 -5 0
-7 -4 -4 -10z"/>
<path d="M1770 3078 c0 -5 4 -7 9 -3 13 7 29 -24 26 -52 -1 -18 1 -20 12 -12
9 9 13 8 13 0 0 -6 -10 -16 -22 -21 -13 -5 -16 -9 -8 -9 8 0 23 6 33 14 18 13
18 14 -2 26 -16 11 -18 16 -8 28 10 12 9 13 -2 7 -10 -7 -12 -4 -7 11 5 17 2
21 -19 21 -14 0 -25 -5 -25 -10z"/>
<path d="M6350 3082 c0 -7 -10 -17 -22 -22 -19 -7 -17 -8 14 -6 21 1 41 6 45
11 5 4 3 5 -4 1 -6 -3 -16 2 -22 11 -6 11 -11 13 -11 5z"/>
<path d="M1775 3020 c3 -5 8 -10 11 -10 2 0 4 5 4 10 0 6 -5 10 -11 10 -5 0
-7 -4 -4 -10z"/>
<path d="M6334 3018 c-4 -7 -3 -10 1 -5 5 4 16 0 26 -9 14 -12 18 -13 25 -2 4
7 3 10 -1 5 -5 -4 -16 0 -26 9 -14 12 -18 13 -25 2z"/>
<path d="M1825 2970 c-4 -6 -11 -7 -17 -4 -7 4 -8 2 -4 -5 4 -6 10 -9 14 -7 4
2 13 -2 19 -10 15 -15 6 -23 -20 -19 -9 2 -15 0 -12 -5 6 -10 24 -8 43 4 11 6
10 11 -3 26 -13 14 -13 19 -3 23 9 4 9 6 1 6 -6 1 -15 -4 -18 -9z"/>
<path d="M6215 2770 c-3 -5 -1 -11 5 -15 5 -3 8 -20 5 -38 -4 -17 -3 -29 0
-25 4 3 8 14 10 25 2 10 4 20 4 22 1 2 7 0 14 -5 7 -5 5 -2 -5 8 -12 11 -14
18 -6 20 8 3 6 7 -5 11 -9 3 -19 2 -22 -3z"/>
<path d="M6277 2715 c-4 -8 -3 -16 1 -19 4 -3 9 4 9 15 2 23 -3 25 -10 4z"/>
<path d="M1965 2670 c3 -5 8 -10 11 -10 2 0 4 5 4 10 0 6 -5 10 -11 10 -5 0
-7 -4 -4 -10z"/>
<path d="M1875 2660 c-3 -5 -1 -10 4 -10 6 0 11 5 11 10 0 6 -2 10 -4 10 -3 0
-8 -4 -11 -10z"/>
<path d="M1937 2613 c-10 -9 -9 -23 1 -23 5 0 9 7 9 15 0 17 -1 18 -10 8z"/>
<path d="M1995 2580 c-3 -5 -11 -8 -18 -6 -7 1 -9 1 -4 -1 4 -3 5 -9 1 -14 -3
-5 0 -9 5 -9 6 0 11 6 11 13 0 8 3 8 8 2 7 -11 27 -14 36 -5 3 3 -3 11 -14 18
-11 7 -21 8 -25 2z"/>
<path d="M6176 2558 c3 -5 10 -6 15 -3 13 9 11 12 -6 12 -8 0 -12 -4 -9 -9z"/>
<path d="M6153 2508 c-1 -11 1 -16 5 -12 4 5 11 12 15 15 5 3 2 9 -5 12 -9 3
-14 -3 -15 -15z"/>
<path d="M2078 2433 c-10 -2 -18 -8 -18 -13 0 -5 7 -6 17 -3 12 5 14 3 8 -7
-5 -9 -4 -11 3 -6 7 4 12 2 12 -5 0 -7 3 -9 6 -6 4 4 2 13 -4 20 -7 8 -9 17
-5 20 3 4 4 6 2 6 -2 -1 -12 -3 -21 -6z"/>
<path d="M6090 2399 c0 -5 5 -7 10 -4 6 3 10 8 10 11 0 2 -4 4 -10 4 -5 0 -10
-5 -10 -11z"/>
<path d="M6004 2347 c1 -22 23 -44 33 -33 4 3 1 6 -6 6 -7 0 -9 5 -6 10 3 6 1
10 -5 10 -6 0 -9 4 -5 9 3 5 1 12 -4 15 -4 3 -8 -4 -7 -17z"/>
<path d="M2045 2340 c-3 -6 1 -7 9 -4 18 7 21 14 7 14 -6 0 -13 -4 -16 -10z"/>
<path d="M2106 2222 c-3 -5 1 -9 9 -9 8 0 12 4 9 9 -3 4 -7 8 -9 8 -2 0 -6 -4
-9 -8z"/>
<path d="M2150 2226 c0 -2 7 -7 16 -10 8 -3 12 -2 9 4 -6 10 -25 14 -25 6z"/>
<path d="M5930 2200 c0 -5 5 -10 11 -10 5 0 7 5 4 10 -3 6 -8 10 -11 10 -2 0
-4 -4 -4 -10z"/>
<path d="M5910 2171 c0 -5 7 -12 16 -15 14 -5 15 -4 4 9 -14 17 -20 19 -20 6z"/>
<path d="M2224 2159 c-4 -8 -3 -9 5 -5 6 4 14 0 18 -9 3 -10 0 -21 -8 -26 -10
-6 -9 -8 7 -7 14 1 21 10 22 27 1 13 -1 21 -5 18 -3 -4 -12 -2 -19 4 -8 7 -14
6 -20 -2z"/>
<path d="M5885 2160 c-4 -6 -11 -8 -16 -5 -14 9 -11 -1 5 -14 11 -9 15 -7 19
9 6 22 2 26 -8 10z"/>
<path d="M2325 2089 c-4 -6 -5 -12 -2 -15 2 -3 7 2 10 11 7 17 1 20 -8 4z"/>
<path d="M5856 2038 c3 -5 10 -6 15 -3 13 9 11 12 -6 12 -8 0 -12 -4 -9 -9z"/>
<path d="M5752 2027 c-15 -17 -12 -59 3 -47 6 5 17 5 25 0 20 -13 30 -12 30 0
0 6 -3 9 -7 8 -15 -4 -53 13 -53 23 0 6 5 7 10 4 6 -3 10 1 10 9 0 19 -4 20
-18 3z"/>
<path d="M2350 1999 c0 -5 5 -7 10 -4 6 3 10 8 10 11 0 2 -4 4 -10 4 -5 0 -10
-5 -10 -11z"/>
<path d="M2305 1950 c-3 -6 1 -7 9 -4 18 7 21 14 7 14 -6 0 -13 -4 -16 -10z"/>
<path d="M2397 1919 c7 -7 15 -10 18 -7 3 3 -2 9 -12 12 -14 6 -15 5 -6 -5z"/>
<path d="M2483 1916 c-10 -11 -9 -15 3 -20 10 -4 13 -2 8 6 -5 8 -2 9 11 4 15
-5 16 -4 5 9 -15 18 -12 18 -27 1z"/>
<path d="M5571 1840 c-17 -15 -31 -26 -31 -22 0 3 -8 -2 -18 -11 -10 -10 -21
-15 -24 -12 -3 3 -11 -2 -19 -12 -12 -15 -12 -16 5 -10 15 6 17 5 7 -7 -9 -11
-8 -15 4 -20 9 -3 13 -2 10 4 -3 5 -1 19 5 30 9 16 15 18 30 10 17 -9 19 -8
13 7 -6 16 -5 16 10 4 9 -7 14 -18 10 -24 -3 -6 -1 -7 6 -3 8 6 9 12 2 20 -6
7 -7 17 -3 21 4 5 1 5 -5 1 -7 -4 -13 -3 -13 3 0 15 23 19 45 8 11 -5 17 -6
13 -2 -4 5 -3 14 2 20 8 9 6 14 -4 18 -9 4 -28 -6 -45 -23z m39 10 c0 -5 -5
-10 -11 -10 -5 0 -7 5 -4 10 3 6 8 10 11 10 2 0 4 -4 4 -10z"/>
<path d="M5596 1807 c3 -10 9 -15 12 -12 3 3 0 11 -7 18 -10 9 -11 8 -5 -6z"/>
<path d="M2516 1802 c-3 -5 1 -9 9 -9 8 0 12 4 9 9 -3 4 -7 8 -9 8 -2 0 -6 -4
-9 -8z"/>
<path d="M2659 1777 c-13 -10 -14 -15 -4 -24 10 -9 14 -9 19 3 3 9 11 12 18 8
9 -5 9 -3 -1 9 -7 9 -14 17 -15 17 0 0 -8 -6 -17 -13z"/>
<path d="M2550 1759 c0 -5 5 -7 10 -4 6 3 10 8 10 11 0 2 -4 4 -10 4 -5 0 -10
-5 -10 -11z"/>
<path d="M2630 1719 c0 -5 5 -7 10 -4 6 3 10 8 10 11 0 2 -4 4 -10 4 -5 0 -10
-5 -10 -11z"/>
<path d="M2715 1708 l-20 -21 23 12 c12 6 22 16 22 21 0 13 -2 12 -25 -12z"/>
<path d="M2741 1684 c0 -11 3 -14 6 -6 3 7 2 16 -1 19 -3 4 -6 -2 -5 -13z"/>
<path d="M5416 1673 c-6 -14 -5 -15 5 -6 7 7 10 15 7 18 -3 3 -9 -2 -12 -12z"/>
<path d="M2787 1639 c7 -7 15 -10 18 -7 3 3 -2 9 -12 12 -14 6 -15 5 -6 -5z"/>
<path d="M2926 1594 c-3 -9 -4 -19 -1 -22 3 -3 5 1 5 9 0 11 2 11 10 -1 5 -8
10 -10 10 -5 0 6 -4 16 -9 23 -6 11 -10 10 -15 -4z"/>
<path d="M2814 1582 c4 -3 14 -7 22 -8 9 -1 13 0 10 4 -4 3 -14 7 -22 8 -9 1
-13 0 -10 -4z"/>
<path d="M5235 1581 c-3 -5 0 -13 6 -17 7 -4 9 -3 5 4 -3 5 0 13 6 15 9 4 10
6 1 6 -6 1 -14 -3 -18 -8z"/>
<path d="M5318 1583 c7 -3 16 -2 19 1 4 3 -2 6 -13 5 -11 0 -14 -3 -6 -6z"/>
<path d="M2974 1569 c-4 -7 -3 -9 4 -5 5 3 12 0 15 -6 2 -7 7 -10 11 -7 4 3 0
12 -8 18 -11 9 -16 9 -22 0z"/>
<path d="M2960 1540 c-12 -7 -10 -9 7 -7 12 0 19 5 17 9 -6 10 -6 10 -24 -2z"/>
<path d="M5136 1531 c10 -10 21 -17 23 -15 6 6 -20 34 -32 34 -6 0 -2 -8 9
-19z"/>
<path d="M5006 1505 c-10 -8 -22 -12 -26 -10 -4 3 -13 -2 -20 -10 -9 -10 -9
-15 -1 -15 6 0 11 4 11 9 0 4 10 8 23 7 12 -1 21 -7 20 -14 -2 -7 1 -12 6 -12
5 0 8 14 7 30 0 17 -1 30 -1 30 0 0 -9 -7 -19 -15z"/>
<path d="M3106 1482 c-3 -5 1 -9 9 -9 8 0 12 4 9 9 -3 4 -7 8 -9 8 -2 0 -6 -4
-9 -8z"/>
<path d="M4904 1461 c0 -15 3 -17 13 -9 10 8 12 7 7 -6 -3 -9 -2 -16 4 -16 5
0 9 10 8 22 -1 29 -32 37 -32 9z"/>
<path d="M3177 1449 c7 -7 15 -10 18 -7 3 3 -2 9 -12 12 -14 6 -15 5 -6 -5z"/>
<path d="M3215 1451 c-3 -2 -5 -9 -5 -15 0 -6 5 -4 10 4 6 10 10 11 10 3 0
-17 16 -17 23 0 4 12 -28 19 -38 8z"/>
<path d="M4950 1449 c0 -5 5 -7 10 -4 6 3 10 8 10 11 0 2 -4 4 -10 4 -5 0 -10
-5 -10 -11z"/>
<path d="M4779 1416 c0 -1 -2 -9 -4 -19 -3 -18 -3 -18 16 -1 10 9 19 18 19 19
0 2 -29 3 -31 1z"/>
<path d="M4606 1367 c3 -10 9 -15 12 -12 3 3 0 11 -7 18 -10 9 -11 8 -5 -6z"/>
<path d="M3420 1360 c-9 -6 -10 -10 -3 -10 6 0 15 5 18 10 8 12 4 12 -15 0z"/>
<path d="M3637 1343 c-10 -10 -8 -33 3 -33 5 0 6 7 3 17 -5 12 -3 14 7 8 9 -5
11 -4 6 3 -8 14 -10 14 -19 5z"/>
<path d="M3416 1327 c3 -10 9 -15 12 -12 3 3 0 11 -7 18 -10 9 -11 8 -5 -6z"/>
<path d="M4334 1329 c-3 -5 -10 -7 -15 -4 -5 4 -9 1 -9 -5 0 -7 7 -10 15 -6 8
3 18 -2 23 -11 8 -14 10 -14 15 1 4 9 8 19 9 23 5 10 -31 12 -38 2z m36 -5 c0
-8 -19 -13 -24 -6 -3 5 1 9 9 9 8 0 15 -2 15 -3z"/>
<path d="M3771 1314 c0 -11 3 -14 6 -6 3 7 2 16 -1 19 -3 4 -6 -2 -5 -13z"/>
<path d="M3793 1308 c-2 -18 0 -20 7 -8 12 18 13 30 2 30 -4 0 -9 -10 -9 -22z"/>
<path d="M4270 1318 c0 -5 -4 -6 -10 -3 -6 4 -7 -1 -3 -11 4 -11 8 -13 11 -6
2 7 10 12 18 12 8 0 14 4 14 8 0 5 -7 9 -15 9 -8 0 -15 -4 -15 -9z"/>
<path d="M4706 1318 c3 -5 10 -6 15 -3 13 9 11 12 -6 12 -8 0 -12 -4 -9 -9z"/>
<path d="M3856 1313 c-3 -3 -6 -11 -6 -17 0 -6 5 -4 10 4 7 11 10 11 10 2 0
-8 5 -10 12 -6 7 5 9 2 5 -8 -4 -11 0 -15 10 -14 9 2 17 10 19 20 1 10 -3 15
-9 13 -7 -2 -19 -1 -28 4 -9 5 -19 5 -23 2z"/>
<path d="M4181 1304 c6 -7 15 -11 20 -8 5 3 9 0 9 -6 0 -6 5 -8 11 -4 12 7
-13 26 -39 30 -10 2 -10 -1 -1 -12z"/>
<path d="M4376 1301 c-3 -5 2 -15 12 -22 15 -13 16 -12 4 3 -11 14 -10 17 5
21 16 4 16 5 1 6 -9 0 -19 -3 -22 -8z"/>
<path d="M4237 1287 c-3 -8 1 -14 8 -14 7 0 11 6 8 14 -3 7 -6 13 -8 13 -2 0
-5 -6 -8 -13z"/>
<path d="M4292 1291 c-11 -7 -11 -9 0 -14 9 -3 15 1 15 9 0 8 -1 14 -1 14 -1
0 -7 -4 -14 -9z"/>
<path d="M4326 1283 c-6 -14 -5 -15 5 -6 7 7 10 15 7 18 -3 3 -9 -2 -12 -12z"/>
<path d="M3445 1280 c-3 -6 1 -7 9 -4 18 7 21 14 7 14 -6 0 -13 -4 -16 -10z"/>
<path d="M3666 1282 c-3 -5 1 -9 9 -9 8 0 12 4 9 9 -3 4 -7 8 -9 8 -2 0 -6 -4
-9 -8z"/>
<path d="M3745 1280 c-3 -6 1 -7 9 -4 18 7 21 14 7 14 -6 0 -13 -4 -16 -10z"/>
<path d="M4055 1271 c-3 -5 -2 -12 3 -15 5 -3 9 1 9 9 0 17 -3 19 -12 6z"/>
<path d="M4193 1265 c0 -8 4 -12 9 -9 5 3 6 10 3 15 -9 13 -12 11 -12 -6z"/>
<path d="M3995 1250 c-4 -6 -11 -7 -17 -4 -7 4 -8 2 -4 -5 6 -9 11 -9 22 0 14
11 18 19 10 19 -3 0 -8 -5 -11 -10z"/>
<path d="M4110 1246 c0 -2 7 -7 16 -10 8 -3 12 -2 9 4 -6 10 -25 14 -25 6z"/>
</g>
</svg>
